<?xml version="1.0" encoding="utf-8"?>
<!-- Generator: Adobe Illustrator 26.1.0, SVG Export Plug-In . SVG Version: 6.00 Build 0)  -->
<svg version="1.1" id="Layer_1" xmlns="http://www.w3.org/2000/svg" xmlns:xlink="http://www.w3.org/1999/xlink" x="0px" y="0px"
	 viewBox="0 0 629.4 760.3" style="enable-background:new 0 0 629.4 760.3;" xml:space="preserve">
<style type="text/css">
	.st0{display:none;fill:#D2AD39;}
	.st1{fill:#2C9C74;stroke:#A5D727;stroke-width:4;stroke-miterlimit:10;}
	.st2{fill:#A5D727;stroke:#A5D727;stroke-miterlimit:10;}
	.st3{font-family:'MyriadPro-Regular';}
	.st4{font-size:55.1883px;}
	.st5{fill:#2C9C74;}
	.st6{font-size:64.9258px;}
	.st7{font-size:36.6873px;}
	.st8{fill-rule:evenodd;clip-rule:evenodd;fill:#FFFFFF;}
	.st9{fill:none;}
	.st10{filter:url(#Adobe_OpacityMaskFilter);}
	.st11{mask:url(#mask-10_00000106111964429097754850000006405309731033757318_);}
	.st12{fill:#2F2F2F;stroke:#000000;stroke-width:2;}
	.st13{fill:none;stroke:#000000;stroke-width:2;}
	.st14{fill-rule:evenodd;clip-rule:evenodd;fill:#2F2F2F;stroke:#000000;stroke-width:2;}
	.st15{fill-rule:evenodd;clip-rule:evenodd;fill:#FEE639;stroke:#000000;stroke-width:4;stroke-miterlimit:10;}
	.st16{filter:url(#Adobe_OpacityMaskFilter_00000179632346514792007690000010134935822005999237_);}
	.st17{mask:url(#mask-10_00000021117316284073218500000017256420344102962332_);}
	.st18{fill-rule:evenodd;clip-rule:evenodd;fill:#FEE639;}
	.st19{fill-rule:evenodd;clip-rule:evenodd;fill:none;stroke:#2E261E;stroke-width:4;}
	.st20{fill-rule:evenodd;clip-rule:evenodd;fill:none;stroke:#000000;stroke-width:4;stroke-miterlimit:10;}
	.st21{fill-rule:evenodd;clip-rule:evenodd;fill:#2F2F2F;stroke:#000000;stroke-width:2;stroke-miterlimit:10;}
	.st22{fill:#F5D3B7;stroke:#2E261E;stroke-width:2;}
	.st23{fill:none;stroke:#2E261E;stroke-width:2;}
	.st24{fill:none;stroke:#000000;stroke-width:4;stroke-miterlimit:10;}
	.st25{fill-rule:evenodd;clip-rule:evenodd;fill:#F5D3B7;stroke:#2E261E;stroke-width:2;}
	.st26{fill:#FEE639;stroke:#000000;stroke-width:2;stroke-miterlimit:10;}
	.st27{fill-rule:evenodd;clip-rule:evenodd;fill:#D3964D;stroke:#663622;stroke-width:2;}
	.st28{fill:none;stroke:#C06B46;stroke-width:2;}
	.st29{filter:url(#Adobe_OpacityMaskFilter_00000121261114801191346790000015221481470904572590_);}
	.st30{mask:url(#mask-20_00000106867161348027674460000002379503449839348887_);}
	.st31{fill:#FFFFFF;}
	.st32{filter:url(#Adobe_OpacityMaskFilter_00000129178504844477460140000017916659345389828772_);}
	.st33{mask:url(#mask-22_00000105419154707085260200000005097605402295102364_);}
	.st34{fill-rule:evenodd;clip-rule:evenodd;fill:#FFFFFF;stroke:#C06B46;stroke-width:2;}
</style>
<ellipse class="st0" cx="309.3" cy="743.1" rx="151.3" ry="15.3"/>
<g>
	<path class="st1" d="M462.7,86.2c13.9-3.9,24.2-6.7,39.6-2.8c3,0.8,10.8,4.3,13.5,5.9c4,2.4,7.8,6.1,10.2,9.7
		c5-3.3,9.9-16.2,9.8-17c0-1.1-2.1-3.7-2.8-4.6c-9.1-11.7-23.3-17.1-31-18.3c-13.3-2.1-25.9-1.3-38.4,0.7c-6.3,1-24.6,6.1-24.2,7.2
		c0,0,6,2.9,9.1,4.9C454.7,75.8,460.4,80.5,462.7,86.2z"/>
	<text transform="matrix(-5.673852e-03 0.5181 0.9883 0.1525 509.0599 65.856)" class="st2 st3 st4">$</text>
	<path class="st5" d="M54.9,366c-3,0.6-6.1-0.1-9.2-0.8c-5-1.1-10.3-2.3-14.4-5.4c-2.7-2-4.7-4.6-6.6-7.4c-3.3-4.6-6.2-9.5-8.7-14.6
		c-0.6-1.3-1.2-2.7-0.7-4c4.1,1.4,7.2,4.8,10.9,6.9c6.2,3.7,13.7,4,20.3,6.8c3.8,1.6,3.4,2.7,4.5,6.2
		C52.3,357.9,53.7,361.9,54.9,366z"/>
	<path class="st1" d="M19.7,344.9c1,1.4,2.5,3.1,2.5,3.1c6.4,5.8,14.3,10.2,22.8,10.9c8.6,0.7,17.8-2.7,22.5-9.9
		c9.7,6.6,18.6,14.4,26.6,23c-4.2,7.2-13.1,10.8-21.5,10.4c-8.4-0.4-16.2-4.2-23.2-8.7c-18.7-12-33.3-30.1-41.2-50.9l-0.8-0.7
		c11.6,9.7,24.6,16.6,38.9,21.5c0.9,0.3,1.8,0.6,2.4,1.3c0.5,0.5,0.7,1.2,1,1.8c1.4,3.7,2.8,7.4,4.1,11.1l0.2,0.6"/>
	<path class="st5" d="M542.6,405.6c-3.1,0.9-5.6,3-8.1,5c-4.1,3.4-8.3,7-10.7,11.8c-1.5,3.1-2.2,6.5-2.6,9.9
		c-0.8,5.8-1.2,11.7-1.1,17.6c0,1.4,0.2,3.1,1.3,4c3.1-3.3,4.3-7.8,6.7-11.5c4-6.3,10.7-10.1,15.5-15.8c2.7-3.2,1.9-4.1,1.2-7.8
		C544,414.4,543.4,409.9,542.6,405.6z"/>
	<path class="st1" d="M520.1,441.7c0.2-1.7,0.8-4,0.8-4c3.2-8.3,8.3-16.1,15.8-20.9c7.5-4.7,17.6-5.9,25.3-1.5
		c5.8-10.7,10.3-22,13.5-33.7c-7.3-4.7-17.2-3.7-24.7,0.6c-7.5,4.3-12.9,11.5-17.3,19c-11.5,19.9-16.4,43.5-13.9,66.3l-0.4,1
		c6.1-14.4,14.8-26.9,25.6-38.1c0.7-0.7,1.4-1.4,1.6-2.3c0.2-0.7,0.1-1.4,0-2.1c-0.5-4.1-1-8.1-1.4-12.2l-0.1-0.7"/>
	<path class="st5" d="M20.3,196c-1.8,1.8-2.8,4.3-3.8,6.8c-1.6,4.1-3.2,8.3-3,12.6c0.1,2.8,1,5.5,2,8.1c1.7,4.5,3.8,8.9,6.1,13
		c0.6,1,1.3,2.1,2.5,2.4c0.9-3.5,0.1-7.3,0.3-10.9c0.4-6.1,3.7-11.5,4.8-17.4c0.7-3.4-0.3-3.6-2.2-6.1
		C24.8,201.7,22.6,198.8,20.3,196z"/>
	<path class="st1" d="M18.5,230.7c-0.5-1.3-1-3.2-1-3.2c-1-7.2-0.4-14.8,3.1-21.2s10.3-11.2,17.5-11.1c-0.1-9.9-1.3-19.8-3.6-29.5
		c-7-0.5-13.8,4.1-17.4,10.1c-3.7,6-4.7,13.3-4.9,20.4c-0.4,18.8,5.4,37.6,16.2,52.9l0.1,0.9c-1.3-12.7,0-25.1,3.4-37.4
		c0.2-0.8,0.4-1.5,0.2-2.3c-0.1-0.6-0.5-1.1-0.8-1.5c-1.9-2.7-3.9-5.4-5.8-8.1l-0.3-0.4"/>
	<path class="st1" d="M339.5,52.7c-10.8,2.4-21.6,7.8-28.6,16.4c-4.2-4.8-12.4-16.7-12.4-16.7c1.1-16.9,65.8-35.4,96.6-27.1
		c0,0-10.7,23.2-21.8,31.1C373.4,56.4,348.2,50.8,339.5,52.7z"/>
	<text transform="matrix(-3.922471e-02 -0.5167 0.9764 -0.2162 362.332 44.6135)" class="st2 st3 st6">$</text>
	<path class="st1" d="M169.8,71.6l-1.5,1.4c-11.1-4.7-42.3,7.6-51.8,15.8C102.3,101.1,96,116.7,96,116.7s-3.1-18.2-2.6-26.3
		c1.1-17.3,15.6-28.7,29.3-36.5c12.4-7.1,28.6-10.9,28.6-10.9C158,46.8,165.9,60.7,169.8,71.6z"/>
	<path class="st1" d="M576.8,260.9l0.8,1c7.6-6.6,26.4-1.2,31.7,4.6c8,8.6,10.5,22,10.5,22s3.7-17.5,4.2-25
		c1-15.9-7.3-23.6-15.3-28.3c-7.3-4.2-17.3-4.6-17.3-4.6C586.8,235.5,580.4,250,576.8,260.9z"/>
	<text transform="matrix(-0.8736 0.5425 -0.6632 -0.7484 614.5099 247.1691)" class="st2 st3 st7">$</text>
	<path class="st1" d="M610.6,281.5c-0.2,1.1,1.5,11.9,1.5,20c4,4.6,7.5-6.1,7.7-6.9c7.3-21.7,3.9-36.9,3.9-36.9
		C621.3,271.3,610.8,280.4,610.6,281.5z"/>
</g>
<g id="Group_53" transform="translate(20.224438, 0.000000)">
	<g id="Group_54" transform="translate(0.322000, 0.929000)">
		<path id="Path_00000133522727829129562610000010239840025125276810_" class="st8" d="M201.5,703c1.3,14.5-16.3,25.1-17.9,33.8h35
			c1.8-0.7,0.8-7.3-0.2-11.1c-0.5-1.9,0.6-7.5,3.6-18.3"/>
		<g id="ClipView_16">
			<path id="Path_00000016755584295477148400000009763394103699050411_" class="st9" d="M201,707.6c-1.8,12.8-15.9,20.5-17.4,29.1
				h35c1.8-0.7,0.8-7.3-0.2-11.1c-0.5-1.9,0.6-7.5,3.6-18.3"/>
			<g id="Clipped_00000025431995296111522510000001134336119047744701_">
				<g id="Path_00000163771607960562548570000012556690315085558458_">
				</g>
				<defs>
					<filter id="Adobe_OpacityMaskFilter" filterUnits="userSpaceOnUse" x="156.4" y="710.7" width="71.2" height="40.4">
						<feColorMatrix  type="matrix" values="1 0 0 0 0  0 1 0 0 0  0 0 1 0 0  0 0 0 1 0"/>
					</filter>
				</defs>
				
					<mask maskUnits="userSpaceOnUse" x="156.4" y="710.7" width="71.2" height="40.4" id="mask-10_00000106111964429097754850000006405309731033757318_">
					<g class="st10">
						<path id="path-9_00000119105676087287537860000016291265545100124305_" class="st8" d="M201,707.6l21-0.3
							c-3,10.8-4,16.4-3.6,18.3c1,3.7,1.9,10.4,0.2,11.1h-35C185.1,728.1,199.2,720.4,201,707.6z"/>
					</g>
				</mask>
				<g id="Group_55" class="st11">
					<g id="Path_00000005265407728187344270000004460158663473534110_" transform="translate(-3.881000, -2.089000)">
						<path class="st12" d="M201.8,716.6c5.3-3.9,10.6-3.8,15.9,0.6c2.5,9.3,5.7,3.8,12.6-0.8l-4.1,32.8L163,752L201.8,716.6z"/>
						<path class="st13" d="M217.7,717.2c0,0-0.4,6.8-8.7,15.7"/>
					</g>
				</g>
			</g>
		</g>
		<path id="Path_00000018207110384652286840000008230684279947943085_" class="st13" d="M201,702.8c0.3,1.6-0.3,6.6-0.6,7.4
			c-3.1,11.3-15.4,18.5-16.9,26.5h35c1.8-0.7,0.8-7.3-0.2-11.1c-0.4-1.8-1.2-6.6,2.9-15.3c0.5-1,1.6-2.5,1.9-3.1"/>
	</g>
	<path id="Path_00000144312551349318221080000000660285874663041933_" class="st14" d="M183.9,737.8l28.6,0.3c0,0,0.5-13-14.2-13.2
		C183.6,724.9,183.9,737.8,183.9,737.8z"/>
	<path id="Path_00000173137448144908887400000016459163680019803265_" class="st14" d="M181.9,739c0-0.7,0.4-1.3,0.8-1.3L220,738
		c0.4,0,0.8,0.6,0.8,1.3v2.5c0,0.7-0.4,1.3-0.8,1.3c-12.3-0.3-26.2-0.5-37.3-0.3c-0.4,0-0.8-0.6-0.8-1.3V739z"/>
</g>
<path class="st15" d="M216.9,703.9c3.3,4.3,21.1,9.3,29.7,8.8c21.5-29.6,31.2-71.7,39.6-110c-4.4-5.9-67.4-20.8-70.8-13.5
	C212.1,596.4,215.6,690.2,216.9,703.9z"/>
<g id="Group_53_00000002366000258755745240000000698758251927816107_" transform="translate(20.224438, 0.000000)">
	<g id="Group_54_00000124158931487813171420000001618541310736527018_" transform="translate(0.322000, 0.929000)">
		<path id="Path_00000178166915840325250290000011178595873944412340_" class="st8" d="M387.2,703c-1.3,14.5,16.3,25.1,17.9,33.8
			h-35c-1.8-0.7-0.8-7.3,0.2-11.1c0.5-1.9-0.6-7.5-3.6-18.3"/>
		<g id="ClipView_16_00000141456313477147141370000008440419167725438084_">
			<path id="Path_00000172423313580470248050000015093378380684559519_" class="st9" d="M387.7,707.6c1.8,12.8,15.9,20.5,17.4,29.1
				h-35c-1.8-0.7-0.8-7.3,0.2-11.1c0.5-1.9-0.6-7.5-3.6-18.3"/>
			<g id="Clipped_00000086662735395788247010000000723704422839924399_">
				<g id="Path_00000130622950872222122710000010761554872189789356_">
				</g>
				<defs>
					
						<filter id="Adobe_OpacityMaskFilter_00000027570286031765415440000005220268690056498862_" filterUnits="userSpaceOnUse" x="361.1" y="710.7" width="71.2" height="40.4">
						<feColorMatrix  type="matrix" values="1 0 0 0 0  0 1 0 0 0  0 0 1 0 0  0 0 0 1 0"/>
					</filter>
				</defs>
				
					<mask maskUnits="userSpaceOnUse" x="361.1" y="710.7" width="71.2" height="40.4" id="mask-10_00000021117316284073218500000017256420344102962332_">
					<g style="filter:url(#Adobe_OpacityMaskFilter_00000027570286031765415440000005220268690056498862_);">
						<path id="path-9_00000127011074988783765880000004671880200664342182_" class="st8" d="M387.7,707.6l-21-0.3
							c3,10.8,4,16.4,3.6,18.3c-1,3.7-1.9,10.4-0.2,11.1h35C403.6,728.1,389.5,720.4,387.7,707.6z"/>
					</g>
				</mask>
				<g id="Group_55_00000074404415893724064390000007093822190655620021_" class="st17">
					<g id="Path_00000103235285625269394110000004523033876347485580_" transform="translate(-3.881000, -2.089000)">
						<path class="st12" d="M394.7,716.6c-5.3-3.9-10.6-3.8-15.9,0.6c-2.5,9.3-5.7,3.8-12.6-0.8l4.1,32.8l63.2,2.8L394.7,716.6z"/>
						<path class="st13" d="M378.8,717.2c0,0,0.4,6.8,8.7,15.7"/>
					</g>
				</g>
			</g>
		</g>
		<path id="Path_00000005260513913620269400000009561321626161228711_" class="st13" d="M387.7,702.8c-0.3,1.6,0.3,6.6,0.6,7.4
			c3.1,11.3,15.4,18.5,16.9,26.5h-35c-1.8-0.7-0.8-7.3,0.2-11.1c0.4-1.8,1.2-6.6-2.9-15.3c-0.5-1-1.6-2.5-1.9-3.1"/>
	</g>
	<path id="Path_00000041285719035898352010000003268407545170046651_" class="st14" d="M405.4,737.8l-28.6,0.3c0,0-0.5-13,14.2-13.2
		C405.8,724.9,405.4,737.8,405.4,737.8z"/>
	<path id="Path_00000155825394981271125420000003938132783423096212_" class="st14" d="M407.4,739c0-0.7-0.4-1.3-0.8-1.3l-37.3,0.3
		c-0.4,0-0.8,0.6-0.8,1.3v2.5c0,0.7,0.4,1.3,0.8,1.3c12.3-0.3,26.2-0.5,37.3-0.3c0.4,0,0.8-0.6,0.8-1.3V739z"/>
</g>
<path class="st15" d="M412.9,703.9c-3.3,4.3-21.1,9.3-29.7,8.8c-21.5-29.6-31.2-71.7-39.6-110c4.4-5.9,67.4-20.8,70.8-13.5
	C417.7,596.4,414.2,690.2,412.9,703.9z"/>
<path id="Path_00000155857964255121363850000004062905555265488521_" class="st18" d="M410.3,608.7c12.1-3.6,32.8-11.7,51-30.3
	c11-11.2,17.2-23.3,20.8-31.5c7.3-16.5-339.2-17.8-332.7,0.7c4.8,13.6,17.7,36.6,31.9,47.4c14.6,11.2,29.6,15.5,38.7,17.3
	C283.2,616.1,347.2,619.4,410.3,608.7z"/>
<path id="Path_00000067935220800340038980000009067214170715784337_" class="st19" d="M410.3,608.7c30.8-9.6,57-28.1,71.8-61.9
	c7.3-16.5-339.2-17.8-332.7,0.7c14.8,41.9,41.1,58.3,70.6,64.7"/>
<path id="Path_00000124872731895783455160000018246629238297941694_" class="st20" d="M274.6,614.6c12.5,1.4,64.2,1.9,79.3,1.3"/>
<path id="Path_00000063607181567537076420000006902532166812174466_" class="st21" d="M318.6,303.4c-38.2-1.1-119.3-2-127.4,48.3
	c-8.8,54.9-64.2,55.7-60.9,120.7c7.8,153.5,119.2,122.3,187.8,126.1c68.6,3.8,163.5,15.1,169.4-104.6
	c-5.3-42.2-29.5-75.3-44.4-113.6C425.4,334.2,437.5,306.8,318.6,303.4z"/>
<g>
	<path class="st22" d="M534.5,100.5c6.3-10.2,11.8-26.1,13.6-38.2c2.2-15.6-9.4-22.9-15.5-11.4c-2.7,5.1-9.2,21.6-10.2,43.8"/>
	<path class="st22" d="M529.3,183.3c2.7-6.9,11.8-47.9,11.8-47.9c13.8-4.5,9.7-27.4-5.6-36.6c-3.4-2-12.3-7.1-16.9-4.7
		c-14,7.3-12.3,39.8-14.7,44.3c-5.5,10.2-13.2,18.2-17,26.6"/>
	<path class="st22" d="M552.2,118.1c4.9,5.7-3.4,19.7-8,20.8c-13.1,3.2-15.9-2-17.3-2.4c0,0-13,1.8-18-4
		c-9.9-11.7-3.6-17.8-7.5-22.5c-38.3-45.7,16-44.9,15.5-11.8"/>
	<path class="st23" d="M527.1,125.6c1.6-7.3-3.8-15.1-7.9-18.5"/>
	<path class="st22" d="M560.2,97c3.1-0.4,10.8,8.1-6.4,23.7c-11.5,10.4-11.7,1-11.4-0.2C544.9,106.8,555.5,97.6,560.2,97z"/>
	<path class="st22" d="M551.1,83.3c3.8,1,14.4,7.8-7.5,26.5c-13.3,11.4-14.7,0.8-14.2-1.9C533.2,89.6,545.3,81.7,551.1,83.3z"/>
</g>
<g>
	<path class="st22" d="M109,104.5c-6.3-10.2-11.8-26.1-13.6-38.2c-2.2-15.6,9.4-22.9,15.5-11.4c2.7,5.1,9.2,21.6,10.2,43.8"/>
	<path class="st22" d="M114.2,187.3c-2.7-6.9-11.8-47.9-11.8-47.9c-13.8-4.5-9.7-27.4,5.6-36.6c3.4-2,12.3-7.1,16.9-4.7
		c14,7.3,12.3,39.8,14.7,44.3c5.5,10.2,13.2,18.2,17,26.6"/>
	<path class="st22" d="M91.3,122.1c-4.9,5.7,3.4,19.7,8,20.8c13.1,3.2,15.9-2,17.3-2.4c0,0,13,1.8,18-4c9.9-11.7,3.6-17.8,7.5-22.5
		c38.3-45.7-16-44.9-15.5-11.8"/>
	<path class="st23" d="M116.4,129.6c-1.6-7.3,3.8-15.1,7.9-18.5"/>
	<path class="st22" d="M83.3,101c-3.1-0.4-10.8,8.1,6.4,23.7c11.5,10.4,11.7,1,11.4-0.2C98.6,110.8,88,101.6,83.3,101z"/>
	<path class="st22" d="M92.4,87.3c-3.8,1-14.4,7.8,7.5,26.5c13.3,11.4,14.7,0.8,14.2-1.9C110.3,93.6,98.2,85.7,92.4,87.3z"/>
</g>
<path class="st18" d="M157.8,154c15.7,31.5,25.6,77.8,37.2,111c5.6,16.1,12.5,31.7,18.3,47.8c0.8,2.2,1.6,4.5,1,6.7
	c-0.4,1.6-1.5,2.9-2.5,4.2c-18.9,22.6-41,42.5-65.5,58.8c1.5-1-13.3-46.1-14.5-50.8c-4.4-17.2-7.2-34.6-10.6-52.1
	c-3.5-17.5-19.4-88.4-16.1-104.6c0,0,20.6-5.6,28.2-9C142,162.3,150,159.4,157.8,154z"/>
<path class="st18" d="M487.6,143.8c-15.7,31.5-42.1,87.7-58.5,121.3c-7.5,15.3-19.1,31.9-24.9,47.9c-0.8,2.2,4.6,72.5,62.3,76.1
	c-1.5-1,35.8-88.9,39.2-106.4c3.5-17.5,29.6-92.3,29.6-109.8C533.7,175.1,494.6,149.4,487.6,143.8z"/>
<path class="st24" d="M217.5,314c-13.5-2-45.6-135.2-59.1-159c-0.6-1.1-2.1-1.4-3.1-0.6c-24,17-50.6,20.7-50.6,20.7
	c-4.1-0.6,19.1,160.5,64,269.4"/>
<path class="st24" d="M401.3,312c12.2-6.3,73.5-139.8,87.4-166.1c0.9-1.7,3-0.8,4.4,0.6c12.8,12.1,27.7,21.1,44.1,27.7
	c-17.9,81-38.7,134.6-70.8,215"/>
<path class="st25" d="M312.2,373.3c0,0,69.7-41,74-65.4c0.5-2.7-14.4-7.1-20.8-7.3c-28.7-0.7-127.2,2.8-127.2,2.8
	C247.7,340.7,312.2,373.3,312.2,373.3z"/>
<path class="st18" d="M367.8,299.1c-1.3-6.2,36.1,2.5,41,6.3c16.2,12.5,20.3,45.3,50.8,74.8c30.3,29.4,43.4,176.8,42.1,180
	c-1.4,3.4-56.2,52.1-175.7,43.1c-3.8-0.3-10.2-16-13.6-57c-6,54.4-16.5,57-18.8,57c-104.9,0-174.5-50-174.6-54.3
	c-0.2-12.9,1.5-36.9,2.9-49.8c0.6-5.6,18.6-113.3,22.3-121.8c6.1-14,57.9-62.6,68.3-72c9.5-8.6,43-5.4,43-5.4
	C240.1,341.3,314.3,417,314.3,417S378.3,351,367.8,299.1z"/>
<path class="st20" d="M459.6,380.2c30.3,29.4,43.4,176.8,42.1,180c-1.4,3.4-56.1,50.6-175.7,43.1c-10.7-0.7-13.5-63.8-11.5-105.4
	c-4.2,94-12,104.9-20.9,105.4c-104.8,4.9-174.5-50-174.6-54.3c-0.2-12.9,1.5-36.9,2.9-49.8c0.6-5.6,18.6-113.3,22.3-121.8"/>
<path class="st20" d="M212.6,305.3c9.5-8.6,37.1-7.2,50.7-4.1c13.3,3.1,61.3,14,99.8-1.5c5.9-2.4,40.9,1.8,45.8,5.6"/>
<path class="st24" d="M146.5,290.6c5.5,24.5,4,75.7-2.5,87.5"/>
<path class="st24" d="M462,322.7c-4.5,13.8-7,50.2-1.9,57.9"/>
<path class="st24" d="M212.6,305.3c-2.8,2.8-13.6,53.2,15.4,87.5c4.9-6.4,9.2-9.9,11.2-10.3c11.7,11.5,70.2,85.2,75.5,119.6
	c0.8-9.3,1.1-81.5-0.4-85.2c-1.6-3.7-60.9-57.7-60-107"/>
<path class="st24" d="M407.6,304.6c3,2.8,14,45.5-6.1,78.1c-6-3.9-15.7-4.7-17.9-5.1c-23.5,14.7-69.1,125.4-69.1,125.4"/>
<path class="st24" d="M314.5,418.5c2.7-3.6,56.8-61.6,54.1-109.9"/>
<path class="st26" d="M390.9,551.9c9.1-0.8,20.4-2.6,32.9-6.5c11.1-3.5,20.4-7.7,27.7-11.7c-1.3-4.4-2.7-8.8-4-13.2
	c-7.4,4.1-16.8,8.5-28.2,12c-12.4,3.9-23.6,5.5-32.5,6.3C388.3,543.1,389.6,547.5,390.9,551.9z"/>
<path class="st26" d="M241.6,551.9c-9.1-0.8-20.4-2.6-32.9-6.5c-11.1-3.5-20.4-7.7-27.7-11.7c1.3-4.4,2.7-8.8,4-13.2
	c7.4,4.1,16.8,8.5,28.2,12c12.4,3.9,23.6,5.5,32.5,6.3C244.2,543.1,242.9,547.5,241.6,551.9z"/>
<circle class="st26" cx="299.9" cy="513.2" r="7.7"/>
<circle class="st26" cx="294.9" cy="546.2" r="7.7"/>
<circle class="st26" cx="286.9" cy="579.2" r="7.7"/>
<g id="Group_63" transform="translate(21.062712, 71.567433)">
	<path id="Path_00000045607230350538573790000007420777442710505138_" class="st27" d="M363.1,80.4c6.4,7.2,14.4,1.3,18.1,10.7
		c0.8,2.1-8,34.5-2.7,38.2c3.3,2.3,5.4,3.2,9,4.3c0,0-2.3,2.3-2.6,2.6c-1.3,0.9-5.9,3-6.2,4.7c-0.8,5.5,6.1,9.6,6.1,15.1
		c0,0.1-1.7-0.4-1.9-0.4c-0.6-0.2-4.3-2-4.5-1.8c-0.6,0.5-0.5,3.1-0.5,3.9c-0.1,3.7,0.5,7.3,0.7,11c0.4,9.1-0.8,14.2-9.5,19.1
		c-2.3,1.3-4.8,2-7.3,2.8c-3.6,1.1-8.2,1.8-12,1.3c-10.7-1.3-17.4-13-21.1-22.1c-5.6-14-7.9-28.3-8-43.3
		c-0.1-11.3,0.1-19.2,8.6-27.2L363.1,80.4z"/>
	<path id="Path_00000154420659796344207330000017396113330509912732_" class="st27" d="M220.2,88c-7.2,3.8-14.4,8.3-19.1,14.7
		c-1.1,1.5-3.9,4.7-3.9,6.7c0,0.1,3.7-0.6,4-0.2c2,2.2,1.4,5.4,0.7,8c-0.9,3.6-3.2,6.7-5.7,9.5c-0.7,0.8-1.5,1.5-2.3,2.2
		c-0.5,0.4-1.9,0.6-1.5,1c0.3,0.5,2.8,0.4,3.2,0.4c2.9,0.1,5.5-0.5,8.3-1.2c1.1-0.3,3.1-2,3.4-1c0.9,4-8.8,20.5-8.6,20.4
		c8.4-2.1,8.6-0.5,7.6,6.4c-0.8,5.5-6.9,17.3-7.6,19c-0.5,1.2-1.8,3-1.4,4.4c1.5,5.1,6.7,8.7,11.4,11.1c11.3,5.7,28.3,6,40.1,1.3
		c10.7-4.2,10.7-19.3,11.1-28.1c0.2-6.1,0.5-12.1,0.6-18.2c0.1-5,0.1-10,0.1-15c0-17.5,5.3-48.4-20.3-52.8c-2.8-0.5-5.6-0.5-8.4-0.1
		L220.2,88z"/>
	<g id="Group_64" transform="translate(0.000000, 8.537160)">
		<path id="Path_00000163789119346998456730000016709778930479735476_" class="st22" d="M222,169.8c-10.4-23.4-36.5-25-40.9-11.3
			c-2.8,8.5,1.8,38.3,10.7,47.9c5.5,5.9,19.3,2,28.9-10.5"/>
		<path id="Path_00000053538877386517818530000005669315254236581030_" class="st23" d="M220.7,185.2c-6.5-16.3-28.1-38.6-29.2-12.3
			"/>
		<path id="Path_00000025429314213415552750000000329694545956874920_" class="st22" d="M352.5,171.3c7.3-15.1,46-34,43.2-1
			c-3,35.7-25.2,53.2-35.6,25.7"/>
		<path id="Path_00000183221931682900236640000001508103864206141577_" class="st23" d="M352.5,191.9c6.2-20,31.7-37.9,35.3-21.9"/>
	</g>
	<path id="Path_00000164487302686803145170000003059399288378716322_" class="st25" d="M365.6,80.4c0-16.2-28.4-34.4-72.6-34.5
		c-35.1-0.1-82.5,9.1-78,42.4c1.3,9.4,3,56.5,4.2,94.2c0.7,22.8,7.3,30.2,7.4,35.6c0.6,24.5,14.5,31.2,25.6,40.1
		c15.4,12.4,61.1,15.6,72.8,2.5c17-19.1,28.3-12.1,29.4-42.7c0.3-6.8,8.2-15.6,8.8-35.6C364.4,143.1,365.6,91.6,365.6,80.4z"/>
	<line id="Path_00000032625256367676882080000006917349289022968970_" class="st28" x1="234.5" y1="188" x2="247.8" y2="218.1"/>
	<line id="Path_00000181765851408757556310000007239032215585670786_" class="st28" x1="351.8" y1="182.4" x2="334.7" y2="218.1"/>
	<g id="Group_65" transform="translate(19.122141, 15.305413)">
		<path id="Path_00000023269266408882660340000016243753411899731355_" class="st8" d="M304.1,144.6c-11.3-0.4-16.7,7-14.7,10.5
			c2.4,4.3,34.8,2.1,33.3-1.7C320.9,148.7,313.4,144.9,304.1,144.6z"/>
		<g id="ClipView_21">
			<path id="Path_00000025441726317957016980000009125612828595688110_" class="st9" d="M304.1,144.6c-11.3-0.4-16.7,7-14.7,10.5
				c2.4,4.3,34.8,2.1,33.3-1.7C320.9,148.7,313.4,144.9,304.1,144.6z"/>
			<g id="Clipped_00000126301996816109794710000002188595762399599280_">
				<g id="Path_00000010292274310145507680000012745171469556199081_">
				</g>
				<defs>
					
						<filter id="Adobe_OpacityMaskFilter_00000153691585239593709250000002297177878177038980_" filterUnits="userSpaceOnUse" x="297.3" y="144.6" width="13.4" height="14.1">
						<feColorMatrix  type="matrix" values="1 0 0 0 0  0 1 0 0 0  0 0 1 0 0  0 0 0 1 0"/>
					</filter>
				</defs>
				
					<mask maskUnits="userSpaceOnUse" x="297.3" y="144.6" width="13.4" height="14.1" id="mask-20_00000106867161348027674460000002379503449839348887_">
					<g style="filter:url(#Adobe_OpacityMaskFilter_00000153691585239593709250000002297177878177038980_);">
						<path id="path-19_00000145024066759474288070000006631772031378917266_" class="st8" d="M289.5,155.1
							c-2-3.5,3.4-10.9,14.7-10.5c9.3,0.3,16.8,4.1,18.7,8.8C324.3,157.2,291.9,159.4,289.5,155.1z"/>
					</g>
				</mask>
				<g id="Group_66" class="st30">
					<g id="Path_00000066497195815954494830000010825953036547489922_" transform="translate(1.239585, -0.178846)">
						<path d="M308.3,151.8c0-3.9-2.7-7-6.1-7s-6.1,3.2-6.1,7c0,3.9,2.7,7,6.1,7S308.3,155.7,308.3,151.8z"/>
						<path class="st31" d="M304.1,149.3c0-1.7,1.2-3.1,2.7-3.1c1.5,0,2.7,1.4,2.7,3.1s-1.2,3.1-2.7,3.1
							C305.3,152.4,304.1,151,304.1,149.3z"/>
					</g>
				</g>
			</g>
		</g>
		<path id="Path_00000100371053919233859150000008782088103391117441_" class="st23" d="M304.1,144.6c-11.3-0.4-16.7,7-14.7,10.5
			c2.4,4.3,34.8,2.1,33.3-1.7C320.9,148.7,313.4,144.9,304.1,144.6z"/>
	</g>
	<g id="Group_67" transform="translate(9.250130, 15.305413)">
		<path id="Path_00000127045664182823703100000007954132566836902543_" class="st8" d="M251.6,144.6c11.3-0.4,16.7,7,14.7,10.5
			c-2.4,4.3-34.8,2.1-33.3-1.7C234.8,148.7,242.3,144.9,251.6,144.6z"/>
		<g id="ClipView_22">
			<path id="Path_00000013181582517421971240000002990118745474245285_" class="st9" d="M251.6,144.6c11.3-0.4,16.7,7,14.7,10.5
				c-2.4,4.3-34.8,2.1-33.3-1.7C234.8,148.7,242.3,144.9,251.6,144.6z"/>
			<g id="Clipped_00000083079462397010617620000013006308991543172514_">
				<g id="Path_00000100344473584663688120000001842959995197196696_">
				</g>
				<defs>
					
						<filter id="Adobe_OpacityMaskFilter_00000084492161189652083750000002344678658976232635_" filterUnits="userSpaceOnUse" x="246.2" y="144.6" width="15" height="14.1">
						<feColorMatrix  type="matrix" values="1 0 0 0 0  0 1 0 0 0  0 0 1 0 0  0 0 0 1 0"/>
					</filter>
				</defs>
				
					<mask maskUnits="userSpaceOnUse" x="246.2" y="144.6" width="15" height="14.1" id="mask-22_00000105419154707085260200000005097605402295102364_">
					<g style="filter:url(#Adobe_OpacityMaskFilter_00000084492161189652083750000002344678658976232635_);">
						<path id="path-21_00000155866725551997546040000012556780291421172400_" class="st8" d="M233,153.4c1.9-4.8,9.3-8.5,18.7-8.8
							c11.3-0.4,16.7,7,14.7,10.5C263.9,159.4,231.4,157.2,233,153.4z"/>
					</g>
				</mask>
				<g id="Group_68" class="st33">
					<g id="Path_00000075135829116549695880000016315959697828689835_" transform="translate(1.983597, -0.178846)">
						<path d="M244.2,151.8c0-3.9,2.7-7,6.1-7c3.4,0,6.1,3.2,6.1,7c0,3.9-2.7,7-6.1,7C246.9,158.9,244.2,155.7,244.2,151.8z"/>
						<path class="st31" d="M259.2,149.3c0-1.7-1.2-3.1-2.7-3.1c-1.5,0-2.7,1.4-2.7,3.1s1.2,3.1,2.7,3.1
							C258,152.4,259.2,151,259.2,149.3z"/>
					</g>
				</g>
			</g>
		</g>
		<path id="Path_00000111883838862963495580000015494541963944279700_" class="st23" d="M251.6,144.6c11.3-0.4,16.7,7,14.7,10.5
			c-2.4,4.3-34.8,2.1-33.3-1.7C234.8,148.7,242.3,144.9,251.6,144.6z"/>
	</g>
	<path id="Path_00000174571284040995088110000016438836906219804820_" class="st28" d="M321.1,141.7c9.9-0.9,21.5,2.9,25.6,11.8"/>
	<path id="Path_00000153703436720874301950000003048164652440873870_" class="st28" d="M262.8,141.7c-9.9-0.9-21.5,2.9-25.6,11.8"/>
	<path id="Path_00000121974551997584185090000011718527669313188510_" class="st28" d="M309,177.5c9,4.5,22.1,4.3,29.1-0.1"/>
	<path id="Path_00000153693206593932724200000009398902126093421719_" class="st28" d="M248.4,177.5c9,4.5,22.1,4.3,29.1-0.1"/>
	<path id="Path_00000116209634605090691330000008866309406258974360_" class="st25" d="M327.9,255.4c-3.8,10.1-7.9,16.5-19,19.3
		c-4.8,1.2-10.8-0.8-18.7-0.8c-5.8-0.2-10.6,1.7-14.6,0.6c-14.4-3.9-18.3-12.7-21.2-21.7"/>
	<path id="Path_00000132795134076158684100000018358327862063954367_" class="st34" d="M288.6,216.3c-16.4-1.2-20.4-4.9-23.9-2
		c-6.9,5.5,7,18.7,26.4,19.5c17.1,0.7,32.5-12.1,26.6-18.4C314.9,212.4,297.9,217,288.6,216.3z"/>
	<path id="Path_00000154416528942789900410000004615142346667737766_" class="st28" d="M284.1,149.7c1.4,9.7,2.2,26.7,0.9,36.4
		c-0.5,3.8-19.4,3.3-16.4,16.4c1.5,6.4,13.1-1,15,0c1.9,1,1.9,6.6,8.4,6.1c8.1,0,5.5-4.3,7.9-6.2c0.6-0.5,14.6,3.3,15.5-3.2
		c1.5-10.4-17-10.8-17.4-14.1c-1.3-8.9-1.3-20.8-0.2-34.8"/>
	<path id="Path_00000067946121140030144200000014182298025376296329_" class="st27" d="M208.7,69.6c13.4,1.8,16.1,19.3,19.1,29.2
		c1,3.2,6.4,13.8,5,13.8c-2.5-0.1-9.1,1.1-9.2,1.9c-0.4,6.1,3.9,18.3,1.5,23.5c-0.9,1.9-1.5-4.1-3.1-5.4c-0.2-0.1-2.1,5.3-2.2,5.7
		c-1.4,5.1-0.4,10.3,1.8,14.9c0.2,0.4,3.8,5.8,3.7,5.9c-0.4,0.8-3.8-0.2-4.3,0.2c-0.8,0.6,1.3,19.3,1.1,19.2
		c-0.9-0.4-9.1-13-12.1-18.4"/>
	<path id="Path_00000146474606680331918050000007967063426226331520_" class="st27" d="M374.3,70.2c-7.2,6.3-8,14.1-10.6,23.1
		c-1.1,3.8-2.5,7.5-3.5,11.4c-0.6,2.3-1.5,4.5-2.7,6.5c-0.2,0.3-1.7,2.3-1.5,2.7c1.1,2.8,7-0.6,8.5-0.5c0.2,0-1.4,5.1-1.5,5.6
		c-1.2,3.3-3,6.7-3.3,10.2c-0.2,3.4,1.9-0.9,3.4-1.2c0.7-0.2,1,5.1,0.9,5.8c-0.3,4.2-1.5,8.6-2.9,12.5c-0.3,0.8-2.3,4-2.1,4.7
		c0.2,0.5,1.9,2,2.2,3.3c1.2,4.3,0,19,0.4,19.2c0.7,0.3,6.9-9.9,11.5-15.1"/>
	<path id="Path_00000083071708214940250800000017640553016803335323_" class="st27" d="M220.5,110.4c5-6,30.8-28.4,31.7-27.9
		c3.3,1.8-8.7,16.3-4.9,15.9c3.5-0.3,15.4-5.2,15.6-5c0.6,0.9-8.6,17-10.8,22.8c-0.5,1.3,16.4-12.4,24.4-16.7c-0.4,6-2,7.6,0.1,18.9
		c5.2-9,9.7-11.5,16.1-20.1c-0.6,12.7,1.2,20.6,2.2,20.8c0.9,0.2,32.3-35.9,46.7-39.2c0.7-0.2-1.6,21.9,0.7,23.2
		c1.8,1,6.6-15.1,7.6-15.2c0.6-0.1,4.4,13.3,6,17.9c0.3,0.9,7.6-19.2,8.1-19.6c0.9-0.7,6.2,24,7.9,24.9c0.2,0.1,1.8-3.6,1.9-3.9
		c1-2.7,2.1-13.4,4.1-15c0.3-0.3,3.8,3.1,4.1,3.3c3.9,3.4,8.9,7.4,13.7,9.3c0.8,0.3-1-1.4-1.5-2.2c-1.4-2.3-2.8-4.5-4.3-6.7
		c-4-5.6-7.6-10.9-10.2-17.3c-3.4-8.5,6.4,0.4,8.9-1c0.5-0.3-0.6-3.9-0.8-4.6c-1.2-4.5-4.5-11.6-8.2-14.7
		c-9.5-7.9-27.7-11-39.6-13.4c-3.6-0.7-12.9,0.3-15.6-2.2c-1-0.9,7.2-9.6,8-10.4c1-0.9,4.7-2.6,3.3-2.4c-7.5,1-15.8,6-22.4,9.5
		c-0.9,0.5-6.9,4.4-7.6,4c-2.9-1.7,2.1-11.5,1.2-13.4c-0.5-1.1-2.1,1-3.1,1.5c-3.5,1.9-6.9,4.3-10.2,6.6c-1.4,1-2.7,4.6-4,3.4
		c-6.1-5.7-6.9-14.2-10-21.6c-0.1-0.2-4.5,3.2-5.3,4c-4.3,4.6-6.8,10.6-9.7,16.1c-0.7,1.3-1.9,5.2-3.4,5.4c-5.4,0.6-11.5-1.8-16.5-4
		c-1.7-0.8-3.4-1.5-5.2-2.2c-0.7-0.3-2-1.8-2.2-0.9c-1.1,5.5,8.5,11.2,0,10c-8.2-1.2-16.1-2.9-24.5-3c-0.6,0-7.9,0.7-7.9,0.9
		c1.5,4.7,8.2,4.5,10.5,7.9c0.5,0.8-4.1,6.3-4.6,6.9c-5.2,6.8-11.9,12.3-16.2,19.8c-0.4,0.7-4.5,7-3.8,7.7
		c2.1,2.1,10.8-3.7,13.3-2.4c0.2,0.1-2.1,3.9-2.3,4.2c-2.8,4.4-7,8.9-8.7,13.9c-0.4,1.3,2.5-0.9,3.8-1.4c2.5-1,4.8-2.2,7.2-3.3
		c3.5-1.6,8.8-5.2,12.7-5.6c1.3-0.1,2.9,7.9,3,8.9L220.5,110.4z"/>
</g>
<g>
	<rect x="234" y="128.6" transform="matrix(-1 -5.099977e-11 5.099977e-11 -1 628.3502 264.5802)" width="160.4" height="7.3"/>
	<polygon points="238,135.2 311,135.2 311,142.5 303.7,142.5 303.7,148.1 298.4,148.1 298.4,154.6 291.3,154.6 291.3,160.3 
		258.1,160.3 258.1,154.6 250.6,154.6 250.6,148.1 245,148.1 245,142.5 238,142.5 	"/>
	<polygon points="392.2,135.2 319.2,135.2 319.2,142.5 326.5,142.5 326.5,148.1 331.8,148.1 331.8,154.6 338.9,154.6 338.9,160.3 
		372.1,160.3 372.1,154.6 379.6,154.6 379.6,148.1 385.2,148.1 385.2,142.5 392.2,142.5 	"/>
	<g>
		<rect x="344.9" y="147.9" class="st31" width="8.1" height="7.8"/>
		<rect x="336.9" y="140.1" class="st31" width="8.1" height="7.8"/>
		<rect x="328.8" y="132.4" class="st31" width="8.1" height="7.8"/>
		<rect x="266.2" y="147.9" class="st31" width="8.1" height="7.8"/>
		<rect x="258.1" y="140.1" class="st31" width="8.1" height="7.8"/>
		<rect x="250.1" y="132.4" class="st31" width="8.1" height="7.8"/>
	</g>
</g>
<path id="shine_00000029027591129787795010000003621688159932868532_" class="st31" d="M585.6,171.6c-0.1-0.1-2.7-12.2-6.1-15.3
	c-3.3-3-11.4-4.7-11.1-4.6c0,0,8.6-1.7,11.7-4.9c2.8-2.9,5.1-14.3,5.1-14.4c0.9,4,2.7,11,6,14.1c3.1,3.1,8.3,4.4,11.6,5
	c-4.2,1.3-8,1.1-11.9,4.9C587.6,159.6,587.2,167.7,585.6,171.6z"/>
<path id="shine_00000038371194852401730160000015264761256631371925_" class="st31" d="M53,92c-0.1-0.1-2.7-12.2-6.1-15.3
	c-3.3-3-11.4-4.7-11.1-4.6c0,0,8.6-1.7,11.7-4.9c2.8-2.9,5.1-14.3,5.1-14.4c0.9,4,2.7,11,6,14.1c3.1,3.1,8.3,4.4,11.6,5
	c-4.2,1.3-8,1.1-11.9,4.9C55,80,54.6,88.1,53,92z"/>
</svg>
