<?xml version="1.0" encoding="utf-8"?>
<!-- Generator: Adobe Illustrator 26.1.0, SVG Export Plug-In . SVG Version: 6.00 Build 0)  -->
<svg version="1.1" id="Layer_1" xmlns="http://www.w3.org/2000/svg" xmlns:xlink="http://www.w3.org/1999/xlink" x="0px" y="0px"
	 viewBox="0 0 629.4 760.3" style="enable-background:new 0 0 629.4 760.3;" xml:space="preserve">
<style type="text/css">
	.st0{display:none;fill:#D2AD39;}
	.st1{fill-rule:evenodd;clip-rule:evenodd;fill:#FFFFFF;}
	.st2{fill:none;}
	.st3{filter:url(#Adobe_OpacityMaskFilter);}
	.st4{mask:url(#mask-10_00000106111964429097754850000006405309731033757318_);}
	.st5{fill:#CCCCCC;stroke:#000000;stroke-width:2;}
	.st6{fill:none;stroke:#000000;stroke-width:2;}
	.st7{fill-rule:evenodd;clip-rule:evenodd;fill:#CCCCCC;stroke:#000000;stroke-width:2;}
	.st8{fill-rule:evenodd;clip-rule:evenodd;fill:#8C2262;stroke:#000000;stroke-width:2;stroke-miterlimit:10;}
	.st9{filter:url(#Adobe_OpacityMaskFilter_00000116932978832850080510000008822178370392953278_);}
	.st10{mask:url(#mask-10_00000021117316284073218500000017256420344102962332_);}
	.st11{fill-rule:evenodd;clip-rule:evenodd;fill:#8C2262;}
	.st12{fill-rule:evenodd;clip-rule:evenodd;fill:none;stroke:#2E261E;stroke-width:4;}
	.st13{fill-rule:evenodd;clip-rule:evenodd;fill:none;stroke:#000000;stroke-width:4;stroke-miterlimit:10;}
	.st14{fill:none;stroke:#000000;stroke-width:4;stroke-miterlimit:10;}
	.st15{fill:#8C2262;stroke:#000000;stroke-width:2;stroke-miterlimit:10;}
	.st16{fill:#E7D000;stroke:#000000;stroke-width:2;stroke-miterlimit:10;}
	.st17{fill-rule:evenodd;clip-rule:evenodd;fill:#FEFEFE;}
	.st18{fill-rule:evenodd;clip-rule:evenodd;fill:#F6B47F;}
	.st19{fill-rule:evenodd;clip-rule:evenodd;fill:none;stroke:#000000;stroke-width:2;stroke-miterlimit:10;}
	.st20{fill:none;stroke:#000000;stroke-width:2;stroke-miterlimit:10;}
	.st21{fill-rule:evenodd;clip-rule:evenodd;fill:#F6B47F;stroke:#000000;stroke-width:2;stroke-miterlimit:10;}
	.st22{fill:#8C2262;stroke:#000000;stroke-width:4;stroke-miterlimit:10;}
	.st23{fill-rule:evenodd;clip-rule:evenodd;fill:#FDFF89;stroke:#000000;stroke-width:2;}
	.st24{fill-rule:evenodd;clip-rule:evenodd;fill:#F6B47F;stroke:#2E261E;stroke-width:2;}
	.st25{fill:none;stroke:#C06B46;stroke-width:2;}
	.st26{fill-rule:evenodd;clip-rule:evenodd;fill:#FFFFFF;stroke:#C06B46;stroke-width:2;}
	.st27{filter:url(#Adobe_OpacityMaskFilter_00000080918369782646664940000015307300033968604570_);}
	.st28{mask:url(#mask-14_00000169518009495831538320000010440501103055073439_);}
	.st29{fill:#FFFFFF;}
	.st30{fill:#F6B47F;stroke:#C06B46;stroke-width:2;}
	.st31{fill:none;stroke:#2E261E;stroke-width:2;}
	.st32{filter:url(#Adobe_OpacityMaskFilter_00000052797287504582387810000000891461909384310967_);}
	.st33{mask:url(#mask-16_00000033333475100789035520000004575298263783815854_);}
	.st34{fill-rule:evenodd;clip-rule:evenodd;fill:#F6B47F;stroke:#C06B46;stroke-width:2;}
	.st35{fill:#FF4D46;stroke:#000000;stroke-width:2;}
	.st36{fill:#AC3D38;stroke:#000000;stroke-width:2;}
	.st37{fill:#FDFF89;stroke:#000000;stroke-width:2;}
	.st38{fill:none;stroke:#000000;stroke-width:12;}
	.st39{fill:none;stroke:#FDFF89;stroke-width:7;}
</style>
<ellipse class="st0" cx="309.3" cy="743.1" rx="151.3" ry="15.3"/>
<g id="Group_53" transform="translate(20.224438, 0.000000)">
	<g id="Group_54" transform="translate(0.322000, 0.929000)">
		<path id="Path_00000133522727829129562610000010239840025125276810_" class="st1" d="M201.5,703c1.3,14.5-16.3,25.1-17.9,33.8h35
			c1.8-0.7,0.8-7.3-0.2-11.1c-0.5-1.9,0.6-7.5,3.6-18.3"/>
		<g id="ClipView_16">
			<path id="Path_00000016755584295477148400000009763394103699050411_" class="st2" d="M201,707.6c-1.8,12.8-15.9,20.5-17.4,29.1
				h35c1.8-0.7,0.8-7.3-0.2-11.1c-0.5-1.9,0.6-7.5,3.6-18.3"/>
			<g id="Clipped_00000025431995296111522510000001134336119047744701_">
				<g id="Path_00000163771607960562548570000012556690315085558458_">
				</g>
				<defs>
					<filter id="Adobe_OpacityMaskFilter" filterUnits="userSpaceOnUse" x="156.4" y="710.7" width="71.2" height="40.4">
						<feColorMatrix  type="matrix" values="1 0 0 0 0  0 1 0 0 0  0 0 1 0 0  0 0 0 1 0"/>
					</filter>
				</defs>
				
					<mask maskUnits="userSpaceOnUse" x="156.4" y="710.7" width="71.2" height="40.4" id="mask-10_00000106111964429097754850000006405309731033757318_">
					<g class="st3">
						<path id="path-9_00000119105676087287537860000016291265545100124305_" class="st1" d="M201,707.6l21-0.3
							c-3,10.8-4,16.4-3.6,18.3c1,3.7,1.9,10.4,0.2,11.1h-35C185.1,728.1,199.2,720.4,201,707.6z"/>
					</g>
				</mask>
				<g id="Group_55" class="st4">
					<g id="Path_00000005265407728187344270000004460158663473534110_" transform="translate(-3.881000, -2.089000)">
						<path class="st5" d="M201.8,716.6c5.3-3.9,10.6-3.8,15.9,0.6c2.5,9.3,5.7,3.8,12.6-0.8l-4.1,32.8L163,752L201.8,716.6z"/>
						<path class="st5" d="M217.7,717.2c0,0-0.4,6.8-8.7,15.7"/>
					</g>
				</g>
			</g>
		</g>
		<path id="Path_00000018207110384652286840000008230684279947943085_" class="st6" d="M201,702.8c0.3,1.6-0.3,6.6-0.6,7.4
			c-3.1,11.3-15.4,18.5-16.9,26.5h35c1.8-0.7,0.8-7.3-0.2-11.1c-0.4-1.8-1.2-6.6,2.9-15.3c0.5-1,1.6-2.5,1.9-3.1"/>
	</g>
	<path id="Path_00000144312551349318221080000000660285874663041933_" class="st7" d="M183.9,737.8l28.6,0.3c0,0,0.5-13-14.2-13.2
		C183.6,724.9,183.9,737.8,183.9,737.8z"/>
	<path id="Path_00000173137448144908887400000016459163680019803265_" class="st7" d="M181.9,739c0-0.7,0.4-1.3,0.8-1.3L220,738
		c0.4,0,0.8,0.6,0.8,1.3v2.5c0,0.7-0.4,1.3-0.8,1.3c-12.3-0.3-26.2-0.5-37.3-0.3c-0.4,0-0.8-0.6-0.8-1.3V739z"/>
</g>
<path class="st8" d="M216.9,703.9c3.3,4.3,21.1,9.3,29.7,8.8c21.5-29.6,31.2-71.7,39.6-110c-4.4-5.9-67.4-20.8-70.8-13.5
	C212.1,596.4,215.6,690.2,216.9,703.9z"/>
<g id="Group_53_00000002366000258755745240000000698758251927816107_" transform="translate(20.224438, 0.000000)">
	<g id="Group_54_00000124158931487813171420000001618541310736527018_" transform="translate(0.322000, 0.929000)">
		<path id="Path_00000178166915840325250290000011178595873944412340_" class="st1" d="M387.2,703c-1.3,14.5,16.3,25.1,17.9,33.8
			h-35c-1.8-0.7-0.8-7.3,0.2-11.1c0.5-1.9-0.6-7.5-3.6-18.3"/>
		<g id="ClipView_16_00000141456313477147141370000008440419167725438084_">
			<path id="Path_00000172423313580470248050000015093378380684559519_" class="st2" d="M387.7,707.6c1.8,12.8,15.9,20.5,17.4,29.1
				h-35c-1.8-0.7-0.8-7.3,0.2-11.1c0.5-1.9-0.6-7.5-3.6-18.3"/>
			<g id="Clipped_00000086662735395788247010000000723704422839924399_">
				<g id="Path_00000130622950872222122710000010761554872189789356_">
				</g>
				<defs>
					
						<filter id="Adobe_OpacityMaskFilter_00000071525989404451899610000011324434221412406188_" filterUnits="userSpaceOnUse" x="361.1" y="710.7" width="71.2" height="40.4">
						<feColorMatrix  type="matrix" values="1 0 0 0 0  0 1 0 0 0  0 0 1 0 0  0 0 0 1 0"/>
					</filter>
				</defs>
				
					<mask maskUnits="userSpaceOnUse" x="361.1" y="710.7" width="71.2" height="40.4" id="mask-10_00000021117316284073218500000017256420344102962332_">
					<g style="filter:url(#Adobe_OpacityMaskFilter_00000071525989404451899610000011324434221412406188_);">
						<path id="path-9_00000127011074988783765880000004671880200664342182_" class="st1" d="M387.7,707.6l-21-0.3
							c3,10.8,4,16.4,3.6,18.3c-1,3.7-1.9,10.4-0.2,11.1h35C403.6,728.1,389.5,720.4,387.7,707.6z"/>
					</g>
				</mask>
				<g id="Group_55_00000074404415893724064390000007093822190655620021_" class="st10">
					<g id="Path_00000103235285625269394110000004523033876347485580_" transform="translate(-3.881000, -2.089000)">
						<path class="st5" d="M394.7,716.6c-5.3-3.9-10.6-3.8-15.9,0.6c-2.5,9.3-5.7,3.8-12.6-0.8l4.1,32.8l63.2,2.8L394.7,716.6z"/>
						<path class="st5" d="M378.8,717.2c0,0,0.4,6.8,8.7,15.7"/>
					</g>
				</g>
			</g>
		</g>
		<path id="Path_00000005260513913620269400000009561321626161228711_" class="st6" d="M387.7,702.8c-0.3,1.6,0.3,6.6,0.6,7.4
			c3.1,11.3,15.4,18.5,16.9,26.5h-35c-1.8-0.7-0.8-7.3,0.2-11.1c0.4-1.8,1.2-6.6-2.9-15.3c-0.5-1-1.6-2.5-1.9-3.1"/>
	</g>
	<path id="Path_00000041285719035898352010000003268407545170046651_" class="st7" d="M405.4,737.8l-28.6,0.3c0,0-0.5-13,14.2-13.2
		C405.8,724.9,405.4,737.8,405.4,737.8z"/>
	<path id="Path_00000155825394981271125420000003938132783423096212_" class="st7" d="M407.4,739c0-0.7-0.4-1.3-0.8-1.3l-37.3,0.3
		c-0.4,0-0.8,0.6-0.8,1.3v2.5c0,0.7,0.4,1.3,0.8,1.3c12.3-0.3,26.2-0.5,37.3-0.3c0.4,0,0.8-0.6,0.8-1.3V739z"/>
</g>
<path class="st8" d="M412.9,703.9c-3.3,4.3-21.1,9.3-29.7,8.8c-21.5-29.6-31.2-71.7-39.6-110c4.4-5.9,67.4-20.8,70.8-13.5
	C417.7,596.4,414.2,690.2,412.9,703.9z"/>
<path id="Path_00000155857964255121363850000004062905555265488521_" class="st11" d="M410.3,608.7c12.1-3.6,32.8-11.7,51-30.3
	c11-11.2,17.2-23.3,20.8-31.5c7.3-16.5-339.2-17.8-332.7,0.7c4.8,13.6,17.7,36.6,31.9,47.4c14.6,11.2,29.6,15.5,38.7,17.3
	C283.2,616.1,347.2,619.4,410.3,608.7z"/>
<path id="Path_00000067935220800340038980000009067214170715784337_" class="st12" d="M410.3,608.7c30.8-9.6,57-28.1,71.8-61.9
	c7.3-16.5-339.2-17.8-332.7,0.7c14.8,41.9,41.1,58.3,70.6,64.7"/>
<path id="Path_00000124872731895783455160000018246629238297941694_" class="st13" d="M274.6,614.6c12.5,1.4,64.2,1.9,79.3,1.3"/>
<path class="st11" d="M367.8,299.1c-1.3-6.2,78.3-30.5,84.2-29c4.4,1.2,30.3-2,60.1,24.1c13.7,12,29.1,49.9,34.9,72.2
	c3.5,13.3-33.6,77.8-31.5,91.1c7.5,47.8,7.7,85.3,7.1,86.8c-1.4,3.4-71,55.7-196.3,49c-3.8-0.2-8.9-15.3-12.3-56.4
	c-6,54.4-12.9,55.4-15.1,55.6c-106,8.8-193.3-47-198.6-64c-0.6-2,6.5-69.5,7.8-82.4c0.6-5.6-23.5-84.4-19.8-92.9
	c6.1-14,20.2-51.7,39.9-66.4c35.4-26.3,109.4-18.4,109.4-18.4C221.9,320,314.3,417,314.3,417S378.3,351,367.8,299.1z"/>
<path class="st13" d="M487.9,380.2c30,25.1,36.9,159.1,34.7,164.2c-1.4,3.4-75.4,56.3-195,48.8c-10.7-0.7-15.1-53.7-13.1-95.2
	c-4.2,94-10.4,94.5-19.3,95.2c-115.6,9.2-192.5-54.4-194.9-64.6c-2.9-12.6,13.4-118.8,25-138.5"/>
<path class="st13" d="M212.6,305.3c9.5-8.6,37.1-7.2,50.7-4.1c13.3,3.1,61.3,14,99.8-1.5c5.9-2.4,40.9,1.8,45.8,5.6"/>
<path class="st14" d="M190.7,286.8c-2.8,2.8,4.1,71.8,37.3,106c4.9-6.4,9.2-9.9,11.2-10.3c11.7,11.5,70.2,85.2,75.5,119.6
	c0.8-9.3,1.1-81.5-0.4-85.2c-1.6-3.7-60.9-57.7-60-107"/>
<path class="st14" d="M437,291.6c3,2.8-15.3,68.9-35.5,91.1c-6-3.9-15.7-4.7-17.9-5.1c-23.5,14.7-69.1,125.4-69.1,125.4"/>
<path class="st14" d="M314.5,418.5c2.7-3.6,56.8-61.6,54.1-109.9"/>
<path class="st14" d="M444.1,270.2c14.5-0.6,29.2,2,42.7,7.5c9.4,3.9,18.3,9.2,25.4,16.5c8.2,8.4,13.8,19,18.6,29.6
	c10.3,22.4,18.3,46,23.7,70.1"/>
<path class="st14" d="M188.4,270.2c-14.5-0.6-29.2,2-42.7,7.5c-9.4,3.9-18.3,9.2-25.4,16.5c-8.2,8.4-13.8,19-18.6,29.6
	c-10.3,22.4-18.3,46-23.7,70.1"/>
<path class="st15" d="M386.9,471.9c9.1-0.8,20.4-2.6,32.9-6.5c11.1-3.5,20.4-7.7,27.7-11.7c-1.3-4.4-2.7-8.8-4-13.2
	c-7.4,4.1-16.8,8.5-28.2,12c-12.4,3.9-23.6,5.5-32.5,6.3C384.3,463.1,385.6,467.5,386.9,471.9z"/>
<circle class="st16" cx="299" cy="510.5" r="9.9"/>
<g>
	<path class="st17" d="M508.6,362.7c-0.2-9.2-6.1-15.2-8.7-17.6c4.6-0.7,9.7-1.5,13.9,0.3c3.9,1.7,6.4,0.8,9.8,3.4
		c8,6.2,12.6,22.7,10.3,32.6s-10,18.3-19.6,21.8c-6.7,2.5-11.9,4.7-10.7-5c0.5-3.8,2.8-8.9,4-12.7C509,381.4,508.7,367,508.6,362.7z
		"/>
	<path class="st18" d="M470.4,345.4c-9.8-0.6-19.4-0.1-26.1,1.7c-11.6,3.1-8.7,12.9-3.7,15.1c1.9,0.9,11.1,1,15.2,1.4
		c0.5,0.1,0.5,0.8,0,0.8c-5.8,0.6-14.4,4.5-15.8,8.2c-1.8,4.7-1,8.5,2.8,11.7c3.1,2.6,7.7,1.6,11.8,0.3c3.2-1,3.3-0.5,0.5,0.8
		c-3,1.4-5.8,2.7-6.2,4.8c-0.5,2.9,1.8,7.5,5.4,8.3c2.8,0.6,11.1,1.6,14,1.3c14.6-1.5,18-6.5,24.5-6c2.3,0.2,8.4,2.9,10.1,1.4
		c1.9-1.7,4.1-7.1,4.8-9.6c1.3-4.9,1.1-10.3,1.7-15.3c0.8-6.8-1-13.7-4.5-19.8c-3.1-5.3-6.4-7.4-14.7-5.7"/>
	<path class="st19" d="M467.5,344.9l-0.6,0c-8.5-0.3-16.6,0.5-22.5,2.1c-11.6,3.1-8.7,12.9-3.7,15.1c1.9,0.9,11.1,1,15.2,1.4
		c0.5,0.1,0.5,0.8,0,0.8c-5.8,0.6-14.4,4.5-15.8,8.2c-1.8,4.7-1,8.5,2.8,11.7c3.1,2.6,7.7,1.6,11.8,0.3c3.2-1,3.3-0.5,0.5,0.8
		c-3,1.4-5.8,2.7-6.2,4.8c-0.5,2.9,1.8,7.5,5.4,8.3c2.8,0.6,11.1,1.6,14,1.3c14.6-1.5,18-6.5,24.5-6c2.3,0.2,5.3-0.5,6.3,1.6
		c4.2,9.1,8.3-9.1,9-11.5c2.3-8.3,1.7-28.1-3.3-33.3c-4.2-4.5-10.5-6.8-15.6-5.6"/>
	<path class="st20" d="M497.5,390c-3.2,0.4-5.9,1.3-8.4,2.6c-2.1,1.1-4.3,2.8-5.1,3.2"/>
	<path class="st21" d="M490.5,345c-2.3-1.3-4.5-8.8-4.8-13.2c-0.2-4.5,0.1-9-0.6-13.4c-0.2-1.1-0.5-2.3-1.2-3.2
		c-1.6-2-4.6-1.9-7.1-1.5c-2.2,0.4-4.4,1-6.2,2.4c-3.3,2.5-4.2,6.9-4.8,11c-0.8,5.9,0.2,11.8,0.6,17.7c0,0.4,0.1,0.6,0,1"/>
	<path class="st20" d="M494.6,344.7c6.7-0.7,17.2-0.6,23.4,0"/>
	<path class="st22" d="M525.2,380.2c6-13.4,4.6-28.6-8.8-34.6c8.7-1.2,17.2,4,23.6,10.1c28.5,27.5,56.7,75.1,59.4,100.5
		c1.4,13.1-2.5,35.6-14.4,41.8c-8.9,4.6-18.1-0.3-27.1-4.7c-24.9-12.2-42.2-35.3-55.4-59.7c-4.7-8.7-15.1-40.1-11.2-38.7
		C502.9,399.1,518.9,394.4,525.2,380.2z"/>
</g>
<g>
	<path class="st17" d="M114.3,362.7c0.2-9.2,6.1-15.2,8.7-17.6c-4.6-0.7-9.7-1.5-13.9,0.3c-3.9,1.7-6.4,0.8-9.8,3.4
		c-8,6.2-12.6,22.7-10.3,32.6s10,18.3,19.6,21.8c6.7,2.5,11.9,4.7,10.7-5c-0.5-3.8-2.8-8.9-4-12.7
		C113.9,381.4,114.2,367,114.3,362.7z"/>
	<path class="st18" d="M152.5,345.4c9.8-0.6,19.4-0.1,26.1,1.7c11.6,3.1,8.7,12.9,3.7,15.1c-1.9,0.9-11.1,1-15.2,1.4
		c-0.5,0.1-0.5,0.8,0,0.8c5.8,0.6,14.4,4.5,15.8,8.2c1.8,4.7,1,8.5-2.8,11.7c-3.1,2.6-7.7,1.6-11.8,0.3c-3.2-1-3.3-0.5-0.5,0.8
		c3,1.4,5.8,2.7,6.2,4.8c0.5,2.9-1.8,7.5-5.4,8.3c-2.8,0.6-11.1,1.6-14,1.3c-14.6-1.5-18-6.5-24.5-6c-2.3,0.2-8.4,2.9-10.1,1.4
		c-1.9-1.7-4.1-7.1-4.8-9.6c-1.3-4.9-1.1-10.3-1.7-15.3c-0.8-6.8,1-13.7,4.5-19.8c3.1-5.3,6.4-7.4,14.7-5.7"/>
	<path class="st19" d="M155.4,344.9l0.6,0c8.5-0.3,16.6,0.5,22.5,2.1c11.6,3.1,8.7,12.9,3.7,15.1c-1.9,0.9-11.1,1-15.2,1.4
		c-0.5,0.1-0.5,0.8,0,0.8c5.8,0.6,14.4,4.5,15.8,8.2c1.8,4.7,1,8.5-2.8,11.7c-3.1,2.6-7.7,1.6-11.8,0.3c-3.2-1-3.3-0.5-0.5,0.8
		c3,1.4,5.8,2.7,6.2,4.8c0.5,2.9-1.8,7.5-5.4,8.3c-2.8,0.6-11.1,1.6-14,1.3c-14.6-1.5-18-6.5-24.5-6c-2.3,0.2-5.3-0.5-6.3,1.6
		c-4.2,9.1-8.3-9.1-9-11.5c-2.3-8.3-1.7-28.1,3.3-33.3c4.2-4.5,10.5-6.8,15.6-5.6"/>
	<path class="st20" d="M125.4,390c3.2,0.4,5.9,1.3,8.4,2.6c2.1,1.1,4.3,2.8,5.1,3.2"/>
	<path class="st21" d="M132.4,345c2.3-1.3,4.5-8.8,4.8-13.2c0.2-4.5-0.1-9,0.6-13.4c0.2-1.1,0.5-2.3,1.2-3.2c1.6-2,4.6-1.9,7.1-1.5
		c2.2,0.4,4.4,1,6.2,2.4c3.3,2.5,4.2,6.9,4.8,11c0.8,5.9-0.2,11.8-0.6,17.7c0,0.4-0.1,0.6,0,1"/>
	<path class="st20" d="M128.3,344.7c-6.7-0.7-17.2-0.6-23.4,0"/>
	<path class="st22" d="M97.7,380.2c-6-13.4-4.6-28.6,8.8-34.6c-8.7-1.2-17.2,4-23.6,10.1c-28.5,27.5-56.7,75.1-59.4,100.5
		c-1.4,13.1,2.5,35.6,14.4,41.8c8.9,4.6,18.1-0.3,27.1-4.7c24.9-12.2,42.2-35.3,55.4-59.7c4.7-8.7,15.1-40.1,11.2-38.7
		C120,399.1,104,394.4,97.7,380.2z"/>
</g>
<g id="Group_135" transform="translate(10.410246, 62.296000)">
	<path id="Path_00000038375267777432749640000015004001142020368564_" class="st23" d="M195.1,238.7
		c22.1,14.8,214.5,38.6,240.2-10.2c17.2-32.8,10.5-42.8-7.6-70.7c16.6-38.5,37.7-67.3-2.9-100.7c-19.2-15.8-50.2-15-73.9-18.1
		c-7.4-1-15.2-1.4-22.9-2.1c-10.3-0.9-20.5-2.2-29.8-5.4c-22.7-8-70.6-43.7-116.2,0.7c-44.5,43.4,6.3,79.2,0,124.2
		C176.6,194.8,146.8,206.4,195.1,238.7z"/>
	<path id="Path_00000047034582694011627580000004089826546867688105_" class="st24" d="M403.1,121.1c-5.5-35.1-27-79.2-102.5-79.2
		c-55.9,0-99.6,35.5-101.6,78.7c-1.5,32.8-19.3,84.7-19.2,112.1c24.3,42.5,63.3,67.7,136.4,65.6c52.5-1.5,86.2-22,119.6-66.6
		C438.9,195.9,409.2,159.7,403.1,121.1z"/>
	<path id="Path_00000045599534074039069140000000199383139234007181_" class="st25" d="M352.9,116.3c10-1.3,20.7-8.9,24-16.4"/>
	<path id="Path_00000096050323243875244280000001820655991303868309_" class="st25" d="M358.7,115c9.7,2.8,22.6,0.2,28.6-5.4"/>
	<path id="Path_00000135675686061760226050000003174677078110153601_" class="st25" d="M379.1,259c8.6-5.2,15.4-16.5,15.3-24.7"/>
	<path id="Path_00000027598028145132527550000012969987215634700986_" class="st25" d="M235,259c-8.6-5.2-15.4-16.5-15.3-24.7"/>
	<path id="Path_00000153705255722293488930000016569981398301788043_" class="st25" d="M248.9,119.5c-10-1.3-20.7-8.9-24-16.4"/>
	<path id="Path_00000119094351448152741480000010360645664037076104_" class="st25" d="M243.2,118.3c-9.7,2.9-22.6,0.3-28.6-5.2"/>
	<path id="Path_00000001630719925507836920000012505953250768081589_" class="st25" d="M279.5,140.5c-7.9,7-17,4.9-20.4-3.9"/>
	<path id="Path_00000150783387055709910680000007776230962743221652_" class="st25" d="M327.7,139.2c7.9,7,17,4.9,20.5-3.9"/>
	<path id="Path_00000039105141261019510500000013944939474057025413_" class="st26" d="M303,160.7c-12.7-1.1-15.6-6.2-18.4-1.9
		c-5.5,8.4,4.6,27,19.7,27.4c13.2,0.3,25.6-19.1,21.3-28.1C323.5,153.8,310.2,161.3,303,160.7z"/>
	<g id="Group_136" transform="translate(29.734012, 24.002703)">
		<path id="Path_00000022526390982158518590000004412865058195084695_" class="st1" d="M304.9,82.1c-5.3,0-8.9,3.4-10.9,6.1
			c-9.1,12.9,2.5,28.6,15.6,25c10.1-2.8,13.5-16.5,6.9-24.9C314.2,85.3,311.2,82.2,304.9,82.1z"/>
		<g id="ClipView_53">
			<path id="Path_00000146459365572827313300000013876878628891564694_" class="st2" d="M304.9,82.1c-5.3,0-8.9,3.4-10.9,6.1
				c-9.1,12.9,2.5,28.6,15.6,25c10.1-2.8,13.5-16.5,6.9-24.9C314.2,85.3,311.2,82.2,304.9,82.1z"/>
			<g id="Clipped_00000085932623968790597840000009849459556553123716_">
				<g id="Path_00000023276903374775717520000007439256293053482669_">
				</g>
				<defs>
					
						<filter id="Adobe_OpacityMaskFilter_00000116202836658747885350000004388528120026220478_" filterUnits="userSpaceOnUse" x="285.9" y="75.2" width="39.7" height="49">
						<feColorMatrix  type="matrix" values="1 0 0 0 0  0 1 0 0 0  0 0 1 0 0  0 0 0 1 0"/>
					</filter>
				</defs>
				
					<mask maskUnits="userSpaceOnUse" x="285.9" y="75.2" width="39.7" height="49" id="mask-14_00000169518009495831538320000010440501103055073439_">
					<g style="filter:url(#Adobe_OpacityMaskFilter_00000116202836658747885350000004388528120026220478_);">
						<path id="path-13_00000041999458821717458930000005762529239816413363_" class="st1" d="M294,88.3c1.9-2.7,5.5-6.2,10.9-6.1
							c6.4,0,9.3,3.2,11.6,6.2c6.6,8.5,3.2,22.2-6.9,24.9C296.5,116.8,284.8,101.2,294,88.3z"/>
					</g>
				</mask>
				<g id="Group_137" class="st28">
					<g id="Path_00000111185060718295431740000013310791736208489896_" transform="translate(-0.573012, -1.384702)">
						<path d="M312.3,99.3c0-4.1-2.9-7.4-6.4-7.4c-3.6,0-6.4,3.3-6.4,7.4c0,4.1,2.9,7.4,6.4,7.4C309.4,106.7,312.3,103.4,312.3,99.3
							z"/>
						<path class="st29" d="M313,94.4c0-2.7-1.6-4.9-3.6-4.9c-2,0-3.6,2.2-3.6,4.9c0,2.7,1.6,4.9,3.6,4.9
							C311.4,99.3,313,97.1,313,94.4z"/>
						<polygon class="st30" points="325.2,119.9 287.5,124.4 287.5,106.7 325.2,102.2 						"/>
						<polygon class="st30" points="325.2,95.3 287.5,95.3 287.5,77.6 325.2,77.6 						"/>
					</g>
				</g>
			</g>
		</g>
		<path id="Path_00000077295225561098277600000011510355699976949672_" class="st31" d="M304.9,82.1c-5.3,0-8.9,3.4-10.9,6.1
			c-9.1,12.9,2.5,28.6,15.6,25c10.1-2.8,13.5-16.5,6.9-24.9C314.2,85.3,311.2,82.2,304.9,82.1z"/>
	</g>
	<g id="Group_138" transform="translate(20.294492, 24.002359)">
		<path id="Path_00000053515525055700486480000005040071828716624063_" class="st1" d="M249.8,82.2c-13.8,2.6-18.8,27.3-3,31.1
			c2,0.5,4.4,0.6,6.4,0.2c8.9-1.7,14.1-10.3,11.9-20.3C263.9,87.3,256.6,81.3,249.8,82.2z"/>
		<g id="ClipView_54">
			<path id="Path_00000148628245974988664460000001928127050771596695_" class="st2" d="M249.8,82.2c-13.8,2.6-18.8,27.3-3,31.1
				c2,0.5,4.4,0.6,6.4,0.2c8.9-1.7,14.1-10.3,11.9-20.3C263.9,87.3,256.6,81.3,249.8,82.2z"/>
			<g id="Clipped_00000002346178267266267320000013679458240090723737_">
				<g id="Path_00000088101185157078625230000015501944957632233146_">
				</g>
				<defs>
					
						<filter id="Adobe_OpacityMaskFilter_00000049929872008399932270000017251874338901447856_" filterUnits="userSpaceOnUse" x="231.9" y="75.2" width="39.7" height="50.7">
						<feColorMatrix  type="matrix" values="1 0 0 0 0  0 1 0 0 0  0 0 1 0 0  0 0 0 1 0"/>
					</filter>
				</defs>
				
					<mask maskUnits="userSpaceOnUse" x="231.9" y="75.2" width="39.7" height="50.7" id="mask-16_00000033333475100789035520000004575298263783815854_">
					<g style="filter:url(#Adobe_OpacityMaskFilter_00000049929872008399932270000017251874338901447856_);">
						<path id="path-15_00000149341196265838590920000013056491113155411086_" class="st1" d="M246.8,113.3
							c-15.8-3.8-10.8-28.4,3-31.1c6.8-1,14,5.1,15.3,11c2.2,10-3,18.6-11.9,20.3C251.2,113.9,248.9,113.8,246.8,113.3z"/>
					</g>
				</mask>
				<g id="Group_139" class="st33">
					<g id="Path_00000073701328547723446280000000766433685701131435_" transform="translate(-0.614492, -1.632359)">
						<path d="M258.7,100.8c0-4-3-7.3-6.7-7.3s-6.7,3.3-6.7,7.3c0,4,3,7.3,6.7,7.3S258.7,104.8,258.7,100.8z"/>
						<path class="st29" d="M259.2,95.7c0-2.7-1.6-4.9-3.6-4.9c-2,0-3.6,2.2-3.6,4.9c0,2.7,1.6,4.9,3.6,4.9
							C257.5,100.6,259.2,98.4,259.2,95.7z"/>
						<polygon class="st30" points="271.3,126.3 233.6,120.1 233.6,102.4 271.3,108.6 						"/>
						<polygon class="st30" points="271.3,95.5 233.6,95.5 233.6,77.8 271.3,77.8 						"/>
					</g>
				</g>
			</g>
		</g>
		<path id="Path_00000051344402248975291930000013346011883584781496_" class="st31" d="M249.8,82.2c-13.8,2.6-18.8,27.3-3,31.1
			c2,0.5,4.4,0.6,6.4,0.2c8.9-1.7,14.1-10.3,11.9-20.3C263.9,87.3,256.6,81.3,249.8,82.2z"/>
	</g>
	<path id="Path_00000118361182395504739120000001203365160625196703_" class="st24" d="M376.7,229.3c-34,65.9-122.3,53.9-139.8,2.2"
		/>
	<path id="Path_00000065777995510429454330000011614589928719067823_" class="st25" d="M287.1,189.8c11.3,11.9,27.3,11,35.5-1"/>
	<path id="Path_00000136378951927955711460000002449532139230863774_" class="st34" d="M333.5,228.8c-13.3-26.3-49.7-20.5-57.3,0.6"
		/>
	<path id="Path_00000106122878013751910530000005184302546629541305_" class="st34" d="M316.9,131.1c-6.2,14.1-9.4,16-14.6,15.6
		c-6.3-0.5-13.2-15.1-13.2-15.1"/>
	<path id="Path_00000111890495935826540130000009428559021409183420_" class="st23" d="M225.7,41.8c3.7,2.5,7.3,5.2,10,8.8
		c1.6,2.2,3.3,4.8,4,7.5c1.4,5.2,0.2,9.6-1.6,14.6c-2.3,6.3-5.4,11.1-9.8,16.2c-5.5,6.4-12.2,11.4-15.7,19.4
		c-3.9,9-1.3,20.4-8.4,27.8c-8,8.4-20,3.9-25.9-4.5"/>
	<path id="Path_00000132773968738244214440000004073284759075942792_" class="st23" d="M380.4,51.6c-3.7,2.3-7.3,4.7-10,8
		c-1.6,2-3.3,4.3-4,6.7c-1.4,4.7-0.2,8.6,1.6,13.1c2.3,5.7,5.4,10,9.8,14.6c5.5,5.8,12.2,10.3,15.7,17.5c3.9,8.1,1.3,18.4,8.4,25.1
		c8,7.6,20,3.5,25.9-4"/>
	<path id="Path_00000006700739804931399140000009667058254205302448_" class="st24" d="M209.3,129.7c-3.3-34.4-31.7-26.4-44.3-9.6
		c-8.2,10.9-14.1,36.5,34,41.6"/>
	<path id="Path_00000139268340610400554150000008493198393749949827_" class="st31" d="M203.3,132.7c-4.4-16.1-22.1-21.2-31.2-1.1"
		/>
	<path id="Path_00000133497003319008844770000014668258891281476993_" class="st24" d="M391.3,130.6c0.8-26.8,33.1-41.9,47.4-16.3
		c14.3,25.6-0.1,46.3-30.4,42.6"/>
	<path id="Path_00000044157386200886010040000000552537893910115728_" class="st31" d="M399.7,130.6c4.1-20.9,21.6-26.5,30.6-14.6"
		/>
	<path id="Path_00000075863772006170828920000012269467830824393400_" class="st34" d="M264.7,153.9c-3,51.5-2.7,88.7-61.9,82.7"/>
	<path id="Path_00000042720249088065633990000009561069350320596910_" class="st34" d="M344,150.6c1,61.1,10.7,96.9,61,86.6"/>
	<g id="Group_140" transform="translate(0.000000, 29.776155)">
		<path id="Path_00000098926544743139978060000007894884176315273907_" class="st35" d="M335.5-28.4c0-24.3-19.8-44.1-44.1-44.1
			c-24.3,0-53.8,19.5-53.8,43.8l-0.5,34.3l98.3-12.5V-28.4z"/>
		<path id="Path_00000152245907685522306340000011551774770842460076_" class="st36" d="M349.6-26.6c4.7-0.9,16.6-4.6,45.6-3.5
			c6,0.2,13.5,3,1.7,11.8c-12.2,9.1-54.3-0.6-59.6-2.4L349.6-26.6z"/>
		<path id="Path_00000035515299468975061300000015240323562002431417_" class="st37" d="M372.2,36.1c-22.3,17.8-55.2,28-90.1,32.5
			c-63.8,8.2-91.3-53.1-160.4-21.8c13.9-35.6,39.1-96.8,102.2-66.2c13.7,6.6,29.9,16.6,47.3,17.5c37.3,1.8,71.9-26.1,89.2-21.8
			c35.4,8.7,32,37,35.6,44.2"/>
		<path id="Path_00000022543955787749067260000006766796758280923803_" class="st35" d="M395.3-30.1c-23.7-2-47.9,0.7-72.5,8.2
			L265.2-2.7c3.9,1.3,10.8,3.4,15.5,3.8c37.6,3.6,58-23,90.6-29.8C377.8-29.8,385.4-30.5,395.3-30.1z"/>
	</g>
	<path id="Path_00000111914041831004011320000014442940039115047317_" class="st38" d="M256.2,99.2c22.5,0.8,13.8,10,37.1,12"/>
	<path id="Path_00000132048718220541751540000013914316292999893676_" class="st38" d="M356.4,97.7c-23.7-1.7-23.4,16.9-43.2,13.5"
		/>
	<path id="Path_00000040562698294977569050000009198261996383501240_" class="st39" d="M256.2,99.2c22.5,0.8,13.8,10,37.1,12"/>
	<path id="Path_00000156550664471522817090000005434392572011707788_" class="st39" d="M356.4,97.7c-23.7-1.7-23.4,16.9-43.2,13.5"
		/>
</g>
<g>
	<rect x="234" y="176.6" transform="matrix(-1 -5.099977e-11 5.099977e-11 -1 628.3502 360.5802)" width="160.4" height="7.3"/>
	<polygon points="238,183.2 311,183.2 311,190.5 303.7,190.5 303.7,196.1 298.4,196.1 298.4,202.6 291.3,202.6 291.3,208.3 
		258.1,208.3 258.1,202.6 250.6,202.6 250.6,196.1 245,196.1 245,190.5 238,190.5 	"/>
	<polygon points="392.2,183.2 319.2,183.2 319.2,190.5 326.5,190.5 326.5,196.1 331.8,196.1 331.8,202.6 338.9,202.6 338.9,208.3 
		372.1,208.3 372.1,202.6 379.6,202.6 379.6,196.1 385.2,196.1 385.2,190.5 392.2,190.5 	"/>
	<g>
		<rect x="344.9" y="195.9" class="st29" width="8.1" height="7.8"/>
		<rect x="336.9" y="188.1" class="st29" width="8.1" height="7.8"/>
		<rect x="328.8" y="180.4" class="st29" width="8.1" height="7.8"/>
		<rect x="266.2" y="195.9" class="st29" width="8.1" height="7.8"/>
		<rect x="258.1" y="188.1" class="st29" width="8.1" height="7.8"/>
		<rect x="250.1" y="180.4" class="st29" width="8.1" height="7.8"/>
	</g>
</g>
<path id="shine_00000029027591129787795010000003621688159932868532_" class="st29" d="M476.6,161.6c-0.1-0.1-2.7-12.2-6.1-15.3
	c-3.3-3-11.4-4.7-11.1-4.6c0,0,8.6-1.7,11.7-4.9c2.8-2.9,5.1-14.3,5.1-14.4c0.9,4,2.7,11,6,14.1c3.1,3.1,8.3,4.4,11.6,5
	c-4.2,1.3-8,1.1-11.9,4.9C478.6,149.6,478.2,157.7,476.6,161.6z"/>
<path id="shine_00000038371194852401730160000015264761256631371925_" class="st29" d="M137.9,247.1c-0.1-0.1-2.5-11.1-5.5-13.9
	c-3-2.7-10.3-4.3-10.1-4.2c0,0,7.8-1.6,10.6-4.5c2.6-2.6,4.6-13,4.7-13.1c0.8,3.7,2.5,10,5.4,12.8c2.9,2.8,7.5,4,10.6,4.5
	c-3.8,1.2-7.3,1-10.8,4.5C139.7,236.2,139.3,243.6,137.9,247.1z"/>
<path id="shine_00000061452947486713753080000011304793891612131775_" class="st29" d="M471.6,285.1c0,0-1.9-8.6-4.3-10.8
	c-2.3-2.1-8-3.3-7.9-3.2c0,0,6-1.2,8.2-3.5c2-2,3.6-10.1,3.6-10.1c0.6,2.8,1.9,7.7,4.2,9.9c2.2,2.2,5.9,3.1,8.2,3.5
	c-2.9,0.9-5.7,0.8-8.4,3.5C473,276.6,472.7,282.3,471.6,285.1z"/>
</svg>
