<?xml version="1.0" encoding="utf-8"?>
<!-- Generator: Adobe Illustrator 26.1.0, SVG Export Plug-In . SVG Version: 6.00 Build 0)  -->
<svg version="1.1" id="Layer_1" xmlns="http://www.w3.org/2000/svg" xmlns:xlink="http://www.w3.org/1999/xlink" x="0px" y="0px"
	 viewBox="0 0 629.4 760.3" style="enable-background:new 0 0 629.4 760.3;" xml:space="preserve">
<style type="text/css">
	.st0{display:none;fill:#D2AD39;}
	.st1{fill-rule:evenodd;clip-rule:evenodd;fill:#FFFFFF;}
	.st2{fill:none;}
	.st3{filter:url(#Adobe_OpacityMaskFilter);}
	.st4{mask:url(#mask-10_00000106111964429097754850000006405309731033757318_);}
	.st5{fill:#404040;stroke:#000000;stroke-width:2;stroke-miterlimit:10;}
	.st6{fill:none;stroke:#000000;stroke-width:2;}
	.st7{fill-rule:evenodd;clip-rule:evenodd;fill:#404040;stroke:#000000;stroke-width:2;stroke-miterlimit:10;}
	.st8{fill-rule:evenodd;clip-rule:evenodd;fill:#404040;stroke:#000000;stroke-width:4;stroke-miterlimit:10;}
	.st9{filter:url(#Adobe_OpacityMaskFilter_00000079487039526432262230000013077705798995949975_);}
	.st10{mask:url(#mask-10_00000021117316284073218500000017256420344102962332_);}
	.st11{fill-rule:evenodd;clip-rule:evenodd;fill:#404040;}
	.st12{fill-rule:evenodd;clip-rule:evenodd;fill:none;stroke:#000000;stroke-width:4;}
	.st13{fill-rule:evenodd;clip-rule:evenodd;fill:#FFFFFF;stroke:#000000;stroke-width:2;stroke-miterlimit:10;}
	.st14{fill:#FFFFFF;}
	.st15{fill-rule:evenodd;clip-rule:evenodd;fill:none;stroke:#000000;stroke-width:4;stroke-miterlimit:10;}
	.st16{fill:none;stroke:#999999;stroke-width:4;stroke-miterlimit:10;}
	.st17{fill-rule:evenodd;clip-rule:evenodd;fill:#702B2D;}
	.st18{fill:#F5D3B7;}
	.st19{fill:none;stroke:#000000;stroke-width:2;stroke-miterlimit:10;}
	.st20{fill:none;stroke:#999999;stroke-width:2;stroke-miterlimit:10;}
	.st21{fill:none;stroke:#000000;stroke-width:4;stroke-miterlimit:10;}
	.st22{fill:#FFFFFF;stroke:#999999;stroke-width:4;stroke-miterlimit:10;}
	.st23{fill-rule:evenodd;clip-rule:evenodd;fill:#F5D2B7;}
	.st24{fill-rule:evenodd;clip-rule:evenodd;fill:none;stroke:#000000;stroke-width:2;stroke-miterlimit:10;}
	.st25{fill-rule:evenodd;clip-rule:evenodd;fill:#F5D2B7;stroke:#000000;stroke-width:2;stroke-miterlimit:10;}
	.st26{fill:#FFFFFF;stroke:#999999;stroke-width:3;stroke-miterlimit:10;}
	.st27{fill-rule:evenodd;clip-rule:evenodd;fill:#F5D3B7;stroke:#2E261E;stroke-width:3;}
	.st28{fill:none;stroke:#2E261E;stroke-width:3;}
	.st29{fill-rule:evenodd;clip-rule:evenodd;fill:#333333;stroke:#2E261E;stroke-width:3;}
	.st30{fill:none;stroke:#C06B46;stroke-width:3;}
	.st31{filter:url(#Adobe_OpacityMaskFilter_00000051385358121009670220000008076118870643196805_);}
	.st32{mask:url(#mask-26_00000005246234214121980760000007300907622611472788_);}
	.st33{filter:url(#Adobe_OpacityMaskFilter_00000020385075271555418660000013493249203197445536_);}
	.st34{mask:url(#mask-28_00000157995179797995990980000012597730241912554667_);}
	.st35{fill:none;stroke:#2E261E;stroke-width:7;}
	.st36{fill-rule:evenodd;clip-rule:evenodd;fill:#FFFFFF;stroke:#C06B46;stroke-width:3;}
	.st37{fill-rule:evenodd;clip-rule:evenodd;fill:#F5D3B7;stroke:#C06B46;stroke-width:3;}
</style>
<ellipse class="st0" cx="309.3" cy="743.1" rx="151.3" ry="15.3"/>
<g id="Group_53" transform="translate(20.224438, 0.000000)">
	<g id="Group_54" transform="translate(0.322000, 0.929000)">
		<path id="Path_00000133522727829129562610000010239840025125276810_" class="st1" d="M201.5,703c1.3,14.5-16.3,25.1-17.9,33.8h35
			c1.8-0.7,0.8-7.3-0.2-11.1c-0.5-1.9,0.6-7.5,3.6-18.3"/>
		<g id="ClipView_16">
			<path id="Path_00000016755584295477148400000009763394103699050411_" class="st2" d="M201,707.6c-1.8,12.8-15.9,20.5-17.4,29.1
				h35c1.8-0.7,0.8-7.3-0.2-11.1c-0.5-1.9,0.6-7.5,3.6-18.3"/>
			<g id="Clipped_00000025431995296111522510000001134336119047744701_">
				<g id="Path_00000163771607960562548570000012556690315085558458_">
				</g>
				<defs>
					<filter id="Adobe_OpacityMaskFilter" filterUnits="userSpaceOnUse" x="156.4" y="710.7" width="71.2" height="40.4">
						<feColorMatrix  type="matrix" values="1 0 0 0 0  0 1 0 0 0  0 0 1 0 0  0 0 0 1 0"/>
					</filter>
				</defs>
				
					<mask maskUnits="userSpaceOnUse" x="156.4" y="710.7" width="71.2" height="40.4" id="mask-10_00000106111964429097754850000006405309731033757318_">
					<g class="st3">
						<path id="path-9_00000119105676087287537860000016291265545100124305_" class="st1" d="M201,707.6l21-0.3
							c-3,10.8-4,16.4-3.6,18.3c1,3.7,1.9,10.4,0.2,11.1h-35C185.1,728.1,199.2,720.4,201,707.6z"/>
					</g>
				</mask>
				<g id="Group_55" class="st4">
					<g id="Path_00000005265407728187344270000004460158663473534110_" transform="translate(-3.881000, -2.089000)">
						<path class="st5" d="M201.8,716.6c5.3-3.9,10.6-3.8,15.9,0.6c2.5,9.3,5.7,3.8,12.6-0.8l-4.1,32.8L163,752L201.8,716.6z"/>
						<path class="st6" d="M217.7,717.2c0,0-0.4,6.8-8.7,15.7"/>
					</g>
				</g>
			</g>
		</g>
		<path id="Path_00000018207110384652286840000008230684279947943085_" class="st6" d="M201,702.8c0.3,1.6-0.3,6.6-0.6,7.4
			c-3.1,11.3-15.4,18.5-16.9,26.5h35c1.8-0.7,0.8-7.3-0.2-11.1c-0.4-1.8-1.2-6.6,2.9-15.3c0.5-1,1.6-2.5,1.9-3.1"/>
	</g>
	<path id="Path_00000144312551349318221080000000660285874663041933_" class="st7" d="M183.9,737.8l28.6,0.3c0,0,0.5-13-14.2-13.2
		C183.6,724.9,183.9,737.8,183.9,737.8z"/>
	<path id="Path_00000173137448144908887400000016459163680019803265_" class="st7" d="M181.9,739c0-0.7,0.4-1.3,0.8-1.3L220,738
		c0.4,0,0.8,0.6,0.8,1.3v2.5c0,0.7-0.4,1.3-0.8,1.3c-12.3-0.3-26.2-0.5-37.3-0.3c-0.4,0-0.8-0.6-0.8-1.3V739z"/>
</g>
<path class="st8" d="M216.9,703.9c3.3,4.3,21.1,9.3,29.7,8.8c21.5-29.6,31.2-71.7,39.6-110c-4.4-5.9-67.4-20.8-70.8-13.5
	C212.1,596.4,215.6,690.2,216.9,703.9z"/>
<g id="Group_53_00000002366000258755745240000000698758251927816107_" transform="translate(20.224438, 0.000000)">
	<g id="Group_54_00000124158931487813171420000001618541310736527018_" transform="translate(0.322000, 0.929000)">
		<path id="Path_00000178166915840325250290000011178595873944412340_" class="st1" d="M387.2,703c-1.3,14.5,16.3,25.1,17.9,33.8
			h-35c-1.8-0.7-0.8-7.3,0.2-11.1c0.5-1.9-0.6-7.5-3.6-18.3"/>
		<g id="ClipView_16_00000141456313477147141370000008440419167725438084_">
			<path id="Path_00000172423313580470248050000015093378380684559519_" class="st2" d="M387.7,707.6c1.8,12.8,15.9,20.5,17.4,29.1
				h-35c-1.8-0.7-0.8-7.3,0.2-11.1c0.5-1.9-0.6-7.5-3.6-18.3"/>
			<g id="Clipped_00000086662735395788247010000000723704422839924399_">
				<g id="Path_00000130622950872222122710000010761554872189789356_">
				</g>
				<defs>
					
						<filter id="Adobe_OpacityMaskFilter_00000058563551839033855590000013600073895970015621_" filterUnits="userSpaceOnUse" x="361.1" y="710.7" width="71.2" height="40.4">
						<feColorMatrix  type="matrix" values="1 0 0 0 0  0 1 0 0 0  0 0 1 0 0  0 0 0 1 0"/>
					</filter>
				</defs>
				
					<mask maskUnits="userSpaceOnUse" x="361.1" y="710.7" width="71.2" height="40.4" id="mask-10_00000021117316284073218500000017256420344102962332_">
					<g style="filter:url(#Adobe_OpacityMaskFilter_00000058563551839033855590000013600073895970015621_);">
						<path id="path-9_00000127011074988783765880000004671880200664342182_" class="st1" d="M387.7,707.6l-21-0.3
							c3,10.8,4,16.4,3.6,18.3c-1,3.7-1.9,10.4-0.2,11.1h35C403.6,728.1,389.5,720.4,387.7,707.6z"/>
					</g>
				</mask>
				<g id="Group_55_00000074404415893724064390000007093822190655620021_" class="st10">
					<g id="Path_00000103235285625269394110000004523033876347485580_" transform="translate(-3.881000, -2.089000)">
						<path class="st5" d="M394.7,716.6c-5.3-3.9-10.6-3.8-15.9,0.6c-2.5,9.3-5.7,3.8-12.6-0.8l4.1,32.8l63.2,2.8L394.7,716.6z"/>
						<path class="st5" d="M378.8,717.2c0,0,0.4,6.8,8.7,15.7"/>
					</g>
				</g>
			</g>
		</g>
		<path id="Path_00000005260513913620269400000009561321626161228711_" class="st6" d="M387.7,702.8c-0.3,1.6,0.3,6.6,0.6,7.4
			c3.1,11.3,15.4,18.5,16.9,26.5h-35c-1.8-0.7-0.8-7.3,0.2-11.1c0.4-1.8,1.2-6.6-2.9-15.3c-0.5-1-1.6-2.5-1.9-3.1"/>
	</g>
	<path id="Path_00000041285719035898352010000003268407545170046651_" class="st7" d="M405.4,737.8l-28.6,0.3c0,0-0.5-13,14.2-13.2
		C405.8,724.9,405.4,737.8,405.4,737.8z"/>
	<path id="Path_00000155825394981271125420000003938132783423096212_" class="st7" d="M407.4,739c0-0.7-0.4-1.3-0.8-1.3l-37.3,0.3
		c-0.4,0-0.8,0.6-0.8,1.3v2.5c0,0.7,0.4,1.3,0.8,1.3c12.3-0.3,26.2-0.5,37.3-0.3c0.4,0,0.8-0.6,0.8-1.3V739z"/>
</g>
<path class="st8" d="M412.9,703.9c-3.3,4.3-21.1,9.3-29.7,8.8c-21.5-29.6-31.2-71.7-39.6-110c4.4-5.9,67.4-20.8,70.8-13.5
	C417.7,596.4,414.2,690.2,412.9,703.9z"/>
<path id="Path_00000155857964255121363850000004062905555265488521_" class="st11" d="M420.6,592.1c13.4-4,36.1-12.9,56.2-33.4
	c12.1-12.3,18.9-25.6,22.9-34.7c8-18.1-373.6-19.6-366.4,0.7c5.3,15,19.5,40.3,35.2,52.2c16.1,12.3,32.6,17,42.6,19.1
	C280.6,600.3,351.2,603.9,420.6,592.1z"/>
<path id="Path_00000067935220800340038980000009067214170715784337_" class="st12" d="M414.5,595.7c33.9-10.6,68.9-34.6,85.3-71.7
	c8-18.1-373.6-19.6-366.4,0.7c16.3,46.2,50.3,66.5,82.8,73.6"/>
<path id="Path_00000094598218586480491610000005103081097053240223_" class="st13" d="M432.3,581.6c13.9-4,37.2-16.2,58.2-36.5
	c12.6-12.2,14.3-24.2,18.5-33.1c4.1-8.8-53.4-269.5-149.3-269.7c-17.9,0-84,3.3-101.4,3.5C179.5,247,123.9,504.3,127,512.7
	c5.5,14.9,18.8,42.3,36.7,51.7C238.7,603.6,359.9,593.2,432.3,581.6z"/>
<path class="st14" d="M466.7,272.8c-1,2.8-0.1,5.8,0.8,8.6c2,6.6,4.1,13.3,6.1,19.9c1.2,3.9,2.4,7.8,4.4,11.4c1.1,2.1,2.5,4,3.6,6
	c3.1,5.2,4.9,11,6.8,16.8c3.1,9.8,6.2,19.6,9.2,29.4c3.5,11.4,7,22.9,13.3,33.1c1.4,2.2,3.4,4.6,6,4.4c1.4-0.1,2.6-1.1,3.6-2.1
	c5.4-5.5,6.4-13.8,6.6-21.5c0.6-23.6-4.3-47.2-14.2-68.6c-5.1-11-11.7-21.5-20.5-29.9C488.4,276.4,470.2,262.5,466.7,272.8z"/>
<path class="st1" d="M138.5,282c-35.6,26.2-62.1,60.1-89.5,94.8c-5.3,6.7-10.8,14.2-10.8,22.7c0,4.6,7.3,15.6,11.6,22.1
	c13.9,21.1,36,49.1,46.7,55.4c9.5-6.6,19.1-13.1,28.6-19.7c1-0.7,2-1.4,2.4-2.6c0.4-1.2-0.1-2.5-0.7-3.7
	c-5.5-12.4-11.4-25.6-17.1-37.9c17.1-12.7,29.3-30.5,37.4-50.2c8.1-19.7,10.4-41.3,18.9-60.7c3.2-7.2,4-15.4,0.5-22.8
	C161.3,268.5,145.3,277,138.5,282z"/>
<path id="Path_00000124872731895783455160000018246629238297941694_" class="st15" d="M271.1,598.6c13.7,1.5,70.7,2.1,87.4,1.4"/>
<path class="st16" d="M108.2,415.2c7.6-5.2,12.8-11.2,18.2-17.8"/>
<path class="st16" d="M470.4,270.1c24.9-3.1,57.9,52,56.9,99.1"/>
<path class="st16" d="M313.3,312c-1.2,17.9,1,102.2,2.6,115.4"/>
<path class="st17" d="M397.7,255.2c0,0,30.3,3.7,34.4,6.4c0,0,30.8,3.2,33.5,3.9c4.4,1.2,21.4,48.3,33.2,86.3
	c5.4,17.4,22.2,83.6,23.4,97c4,48-24.3,98.7-25.8,99.1c-56,14.3-304.2,52.4-368.2-38c-1.2-1.7-3.2-33.2-3.9-46.2
	c-4.9-89.8,23-185.2,43.2-194.2c22-9.8,60.9-14.4,60.9-14.4c-5.4,114.5,87.4,153.7,87.4,153.7S388.7,383.8,397.7,255.2z"/>
<path class="st15" d="M429.9,261.6c6.6,0,36.2-0.8,39.7,7.5c13.6,33,46.3,115.9,51.9,173.6c5.8,59.9-24.2,103.2-25,105.2
	c-1.3,3-280.2,63.3-371.4-36.8c-2.3-2.5-1-24.6-0.6-55.7c0.7-53.6,3.3-110.7,22.6-151.5c16.6-35.1,16.6-35.9,52-43.6"/>
<g>
	<path class="st18" d="M128.5,458.6c-0.2-0.1-20,11.9-29.6,20.4c3.7,2.7,4,7.8,4.3,12.4c0.3,4.6,0.8,9.7,4.3,12.7
		c-1.6-0.6-3.3-1.2-5-1.1c-1.7,0.1-3.5,1-4.1,2.6c-0.3,1-0.2,2,0,3c1,5.2,3.8,10.2,8.3,12.9c4.5,2.7,10.9,2.6,14.7-1
		c0.9,2.5,3.4,4.1,6,4.6c2.6,0.5,5.3,0.1,7.9-0.3c1.2-0.2,2.6-0.5,3.3-1.5c0.4-0.6,0.4-1.3,0.4-2.1c0.1-3.6-0.1-7.3,0.1-10.9
		c0.4-5.5,1.8-11,4.3-16c0.4-0.8,0.8-1.5,1-2.4c0.2-0.9,0.1-1.9-0.1-2.8c-1-6.4-2.9-12.7-6-18.4c-1.5-2.8-3.4-5.5-5.5-7.9
		C131.7,461.3,130.6,459.2,128.5,458.6z"/>
	<path class="st19" d="M128.3,458.6c10.2,8.1,15.7,19.7,16.6,32.7"/>
	<path class="st19" d="M130.1,513.5c-1.5,2.7-7.5,6.7-7.6,7.2c-0.2,0.9,1.4,3.2,2.3,3.7c2.1,1.1,5.5,1.2,7.8,1
		c1.3-0.1,2.7-0.4,3.9-0.9c1.2-0.6,2.3-1.5,2.8-2.7c0.1-0.1,0-0.4-0.2-0.3"/>
	<path class="st19" d="M98.9,479c2.8,2.4,3.2,5.7,3.6,9.4c0.4,3.7,0.4,7.5,1.6,11.1c1,3,3,5.6,5.6,7.5"/>
	<path class="st19" d="M109.3,506.6c-2.4-2.5-7.8-4-10.1-2.3c-1.6,1.2-0.4,7,1,9.7c1.4,2.7,3.2,5.2,5.7,7.1s5.5,2.9,8.6,2.5
		c3-0.4,5.6-2.1,8.1-3.7c2.6-1.7,5.4-3.6,6.9-6.4"/>
</g>
<path class="st16" d="M160.9,274.4c-1.6-1.2-3.4-0.7-5.6-0.3c-17.1,3.4-33.9,23-44.8,33.1c-20.4,18.8-37.1,40-54.7,61.2
	c-4.1,5-15.3,19.4-16.6,26.6c-4,21.9,57.4,85.4,57.6,83.6c0.2-1.6,28.7-21.8,30.5-21.2c0.9,0.3-19.8-62.1-46.1-78.2"/>
<path class="st6" d="M137.8,408.1c5.7,9,11.6,18,19,25.6s16.5,13.9,26.8,16.6"/>
<path class="st6" d="M462.8,479.8c-16.4,8.7-35.8,11.5-54,7.8"/>
<path class="st20" d="M83.2,463.8c1.5-4.6,5.2-8.1,9.1-11.1c8.7-6.8,18.8-11.8,29.5-14.7"/>
<path class="st19" d="M153,478.6c-11.6,14.6-15.4,32.6-13.5,44.2"/>
<path class="st21" d="M228.6,257.5c-6.9,109.1,84.1,150.8,87.3,151.4c3,0.5,72.1-29,81.8-150.1"/>
<path class="st21" d="M199.1,259.9c0.1,131,116.8,173.1,116.8,173.1s89.6-26.4,114-173.1C430.9,253.6,199.1,253.7,199.1,259.9z"/>
<path class="st22" d="M471.2,376.3C492.3,424.6,512,442,519,444c7,2,14.7,2.2,20-2.7c7.3-6.7,10.7-19.5,8.4-29.1
	c-6-24.9-18.4-46.7-34.1-66.8c-2.7-3.4-18.4-17-20.2-18.2"/>
<circle class="st20" cx="97" cy="465.3" r="5.5"/>
<g>
	<path class="st23" d="M449.2,323.4c-8.8-0.6-17.4-0.1-23.4,1.5c-10.4,2.8-7.8,11.6-3.4,13.5c1.7,0.8,10,0.9,13.6,1.3
		c0.4,0,0.4,0.7,0,0.7c-5.2,0.5-13,4-14.2,7.3c-1.6,4.2-0.9,7.7,2.5,10.5c2.8,2.3,6.9,1.4,10.6,0.3c2.8-0.9,3-0.5,0.4,0.7
		c-2.7,1.2-5.2,2.4-5.6,4.3c-0.5,2.6,1.6,6.7,4.9,7.4c2.5,0.5,10,1.4,12.6,1.2c13.1-1.4,16.2-5.8,22-5.4c2,0.2,7.5,2.6,9.1,1.3
		c1.7-1.5,3.7-6.4,4.3-8.6c1.2-4.4,1-9.2,1.6-13.7c0.7-6.1-0.9-12.3-4.1-17.8c-2.8-4.8-5.7-6.6-13.2-5.1"/>
	<path class="st24" d="M446.6,323l-0.5,0c-7.7-0.3-15,0.5-20.2,1.9c-10.4,2.8-7.8,11.6-3.4,13.5c1.7,0.8,10,0.9,13.6,1.3
		c0.4,0,0.4,0.7,0,0.7c-5.2,0.5-13,4-14.2,7.3c-1.6,4.2-0.9,7.7,2.5,10.5c2.8,2.3,6.9,1.4,10.6,0.3c2.8-0.9,3-0.5,0.4,0.7
		c-2.7,1.2-5.2,2.4-5.6,4.3c-0.5,2.6,1.6,6.7,4.9,7.4c2.5,0.5,10,1.4,12.6,1.2c13.1-1.4,12.5-4.4,18.4-4.7
		c6.1-0.3,19.8-31.5,10.3-42.8c-1.5-1.7-5.3-2.8-9.9-1.8"/>
	<path class="st25" d="M467.3,323c-2.1-1.2-4.1-7.9-4.3-11.9s0.1-8.1-0.5-12.1c-0.2-1-0.4-2.1-1.1-2.9c-1.4-1.8-4.1-1.7-6.4-1.3
		c-2,0.4-4,0.9-5.6,2.2c-2.9,2.3-3.8,6.2-4.3,9.9c-0.8,5.3,0.2,10.6,0.6,15.9c0,0.4,0.1,0.5,0,0.9"/>
</g>
<path class="st26" d="M477.7,345.4c-1.7,7.9-5.6,16.8-12.1,21.7c1.4,3.7,5.4,10.2,6.1,10.5c14.8,6.1,32.4-39.8,21.8-50.8
	c-1.7-1.7-15.2-4.4-18-4.2c0,0,1,2.2,1.5,5.3C477.8,333.8,478.9,339.7,477.7,345.4z"/>
<g>
	<path d="M317.1,320.6c4.7-3.7,9.5-7.2,14.4-10.6c3.8-2.5,7.7-5,12.1-6c1.1-0.2,2.2-0.4,3.3-0.1c2.2,0.6,3.6,2.7,4.6,4.8
		c4.2,9,4.6,19.7,1.1,29c-1.2,3.3-3.7,6.9-7.2,6.8c-1.6-0.1-3.1-0.9-4.5-1.8c-7.3-4.5-14.4-9.1-21.5-14c-1.5-1.1-3.2-2.4-3.4-4.2
		c-0.9,0.2-1.9-0.2-2.5-0.9"/>
	<path d="M309.4,320.6c-4.7-3.7-9.5-7.2-14.4-10.6c-3.8-2.5-7.7-5-12.1-6c-1.1-0.2-2.2-0.4-3.3-0.1c-2.2,0.6-3.6,2.7-4.6,4.8
		c-4.2,9-4.6,19.7-1.1,29c1.2,3.3,3.7,6.9,7.2,6.8c1.6-0.1,3.1-0.9,4.5-1.8c7.3-4.5,14.4-9.1,21.5-14c1.5-1.1,3.2-2.4,3.4-4.2
		c0.9,0.2,1.9-0.2,2.5-0.9"/>
	<ellipse cx="313.8" cy="323.6" rx="10.9" ry="6.1"/>
</g>
<g id="Group_91" transform="translate(17.821432, 64.371910)">
	<path id="Path_00000124848547201682537590000016847762103711367868_" class="st27" d="M207.7,116.9c-9.2-23.5-21.7-13.1-25.6,0.7
		c-2.4,8.5,0.5,31.8,8.4,41.4c4.9,6,11.7,7.4,20.2-5.1"/>
	<path id="Path_00000037654771650335117460000017202539940458015125_" class="st28" d="M204.5,139.5c-5.7-15.7-13.1-34.9-14-9.6"/>
	<path id="Path_00000057123308427734757660000016392346081020654502_" class="st29" d="M369.8,29.8c15-14,5.5-40-8.5-54.2
		c-5.5-5.5-26.1-16.9-26.1-16.8c1.9,6.1,1,6.6,3.5,13c-10.5-7.5-11.9-8.7-25.9-12c2.2,4.1,2.6,6.4,6.1,14
		c-15.4-9.7-21-13.8-38.7-14.1c7,7,8.5,10.4,12.3,17.5c-23.1-6.1-35.1-13.6-66.6-7.8c7.8,4.1,10.9,4.6,18.2,10.3
		c-15.9-3-25.5-4.2-28.2-1.8c-0.7,0.6,7.4,5.1,7.3,5.1c-14-1.6-21.4-0.6-34.9,4.7c9.7,2.3,11,3.4,19.3,6.9
		C191.4-3,182-4.6,165.8,17.7c7.7-2.9,10.3-3.5,20.3-4.3c-9.3,11.2-13.3,17.4-15.9,29.2c6.2-4.4,9.2-8,16.8-12.2
		c-1.8,4.8-1.8,5.8-2.2,10.5c-1.2,13.4,13.7,73.1,22.9,91.1c3.9,7.6,17.7,2.6,29.6-0.1c10-2.3,22.2-3.3,31.5-7.8
		c10-4.9,19.5-11.4,27.1-19.4c11-11.5,18.4-26.9,29.5-38.5c4.7-4.9,19-10.6,24.7-14.5C354.2,48.8,367.5,34.4,369.8,29.8z"/>
	<path id="Path_00000146478171101789447600000014753479972333935518_" class="st27" d="M388.3,121.3c5.9-14.9,26.8-32.9,25.3,0
		c-1.7,35.7-20.4,52.5-30.2,24.6"/>
	<path id="Path_00000095312349343588059080000017002073208374243726_" class="st28" d="M387.6,141.7c7-20.1,16.3-33.5,20.2-17.4"/>
	<path id="Path_00000005262387310971737960000005940464125630297477_" class="st29" d="M388.5,132.7c3.9,0.5,9.4-32.6,10-44.1
		c0.6-11.8,7.6-35.5,12.4-41.5c2.8-3.5,7.7-8.1,21.7-4.8c-4.4-4.4-9.9-5.3-18.7-8.7c8.9-2.7,14.3-3.6,24.2-3
		c-12.6-7.9-14.8-9.5-28.5-11.8c11.5-2.2,16.2-4.5,30.8-4.3c-10.6-8.4-23.5-9.9-40.4-8.9c12-5.9,14.4-7.9,25.9-11.6
		c-22.7-4.7-36.8-4-46.6-2.6c-23.2,3.2-26.4,32.7-29.2,55.7c-1.7,14.4,1.2,30,3.4,44.2c1.7,11.2,3.4,31.2,15.3,37.3
		C374.7,131.6,382.2,132,388.5,132.7z"/>
	<path id="Path_00000030485659526760285910000007892420818778311040_" class="st27" d="M388.2,41.2c0-16.3-38.6-34.6-88.2-34.7
		c-39.4-0.1-100.6,9.1-95.6,42.6c2.3,15.2-0.8,111.9-0.4,126.4c0.7,24.6,15.8,18.5,28.2,27.4c17.3,12.5,23.9,33.6,63.2,32.6
		c31.8-0.8,44.4-14.7,57.5-27.9c19.1-19.2,38.1-5.4,39.4-36.1C393,151.3,388.1,58.1,388.2,41.2z"/>
	<path id="Path_00000002373580543855676030000008676550873943893142_" class="st30" d="M289.8,209.3c0.4-0.4,0.7-0.9,1.1-1.3
		c0.4-0.4,1.8-2.2,2.7-2.3c1.8-0.2,3.3,2.5,4.5,3.5"/>
	<path id="Path_00000027588100085469402360000010922872761163503497_" class="st30" d="M338.7,143c2,4.3-0.1,16.6-2.6,23.8"/>
	<path id="Path_00000158748935985342266160000013491201009175597474_" class="st30" d="M252.8,143c-2,4.3,0.1,16.6,2.6,23.8"/>
	<path id="Path_00000083773470170551023200000000747745003455125151_" class="st30" d="M280.9,186.5c7.9,5.3,18,6.2,30,0.1"/>
	<g id="Group_92" transform="translate(21.583529, 20.324163)">
		<path id="Path_00000148659099285508942680000015290581137994320013_" class="st1" d="M306.3,77.1c-12.7-0.4-18.7,7.1-16.5,10.6
			c2.7,4.3,39.1,0.9,37.4-2.9C325,80.1,316.7,77.4,306.3,77.1z"/>
		<g id="ClipView_34">
			<path id="Path_00000170987951953772771180000011289442301456783547_" class="st2" d="M306.3,77.1c-12.7-0.4-18.7,7.1-16.5,10.6
				c2.7,4.3,39.1,0.9,37.4-2.9C325,80.1,316.7,77.4,306.3,77.1z"/>
			<g id="Clipped_00000054235559720384648760000002967428051992078723_">
				<g id="Path_00000183244958928118145540000003041004013533426304_">
				</g>
				<defs>
					
						<filter id="Adobe_OpacityMaskFilter_00000109000467233904005310000003763711610514776972_" filterUnits="userSpaceOnUse" x="298.7" y="77.1" width="15" height="14.2">
						<feColorMatrix  type="matrix" values="1 0 0 0 0  0 1 0 0 0  0 0 1 0 0  0 0 0 1 0"/>
					</filter>
				</defs>
				
					<mask maskUnits="userSpaceOnUse" x="298.7" y="77.1" width="15" height="14.2" id="mask-26_00000005246234214121980760000007300907622611472788_">
					<g style="filter:url(#Adobe_OpacityMaskFilter_00000109000467233904005310000003763711610514776972_);">
						<path id="path-25_00000095329904308372688790000001216271830780032935_" class="st1" d="M289.8,87.7
							c-2.2-3.5,3.8-11,16.5-10.6c10.5,0.3,18.8,2.9,20.9,7.7C328.9,88.7,292.5,92.1,289.8,87.7z"/>
					</g>
				</mask>
				<g id="Group_93" class="st32">
					<g id="Path_00000074438102921729938100000015115223068712230019_" transform="translate(1.384471, -0.231073)">
						<path d="M311,84.5c0-3.9-3.1-7.1-6.9-7.1c-3.8,0-6.9,3.2-6.9,7.1c0,3.9,3.1,7.1,6.9,7.1C307.9,91.6,311,88.4,311,84.5z"/>
						<path class="st14" d="M306.3,82c0-1.7,1.4-3.1,3-3.1c1.7,0,3,1.4,3,3.1s-1.4,3.1-3,3.1C307.6,85.1,306.3,83.7,306.3,82z"/>
					</g>
				</g>
			</g>
		</g>
		<path id="Path_00000170280967087277830750000011225990154797723069_" class="st28" d="M306.3,77.1c-12.7-0.4-18.7,7.1-16.5,10.6
			c2.7,4.3,39.1,0.9,37.4-2.9C325,80.1,316.7,77.4,306.3,77.1z"/>
	</g>
	<g id="Group_94" transform="translate(11.176931, 20.319125)">
		<path id="Path_00000013157570789795553360000014184062047055248002_" class="st1" d="M250.2,77.1c12.7-0.2,18.9,7.2,16.7,10.7
			c-2.7,4.3-39.1,0.7-37-3C232.4,80.4,241.5,77.2,250.2,77.1z"/>
		<g id="ClipView_35">
			<path id="Path_00000069385793650414640370000005371194364859967633_" class="st2" d="M250.2,77.1c12.7-0.2,18.9,7.2,16.7,10.7
				c-2.7,4.3-39.1,0.7-37-3C232.4,80.4,241.5,77.2,250.2,77.1z"/>
			<g id="Clipped_00000064341419242875979590000016237032754485249672_">
				<g id="Path_00000144328958536486339770000010725570848452781705_">
				</g>
				<defs>
					
						<filter id="Adobe_OpacityMaskFilter_00000103248253557054526830000001122707603575903637_" filterUnits="userSpaceOnUse" x="243.2" y="76.8" width="14.5" height="14.2">
						<feColorMatrix  type="matrix" values="1 0 0 0 0  0 1 0 0 0  0 0 1 0 0  0 0 0 1 0"/>
					</filter>
				</defs>
				
					<mask maskUnits="userSpaceOnUse" x="243.2" y="76.8" width="14.5" height="14.2" id="mask-28_00000157995179797995990980000012597730241912554667_">
					<g style="filter:url(#Adobe_OpacityMaskFilter_00000103248253557054526830000001122707603575903637_);">
						<path id="path-27_00000031186125217720102680000011159064750526338989_" class="st1" d="M229.9,84.9
							c2.5-4.4,11.7-7.6,20.3-7.7c12.7-0.2,18.9,7.2,16.7,10.7C264.1,92.2,227.8,88.5,229.9,84.9z"/>
					</g>
				</mask>
				<g id="Group_95" class="st34">
					<g id="Path_00000131335563120794250690000013748086235299377030_" transform="translate(1.994069, -0.169035)">
						<path d="M241.2,84c0-3.9,3.1-7.1,6.9-7.1s6.9,3.2,6.9,7.1c0,3.9-3.1,7.1-6.9,7.1S241.2,87.9,241.2,84z"/>
						<path class="st14" d="M249.7,80.9c0-1.7,1.4-3.1,3-3.1s3,1.4,3,3.1s-1.4,3.1-3,3.1S249.7,82.6,249.7,80.9z"/>
					</g>
				</g>
			</g>
		</g>
		<path id="Path_00000057857807658221439560000006064882041876346775_" class="st28" d="M250.2,77.1c12.7-0.2,18.9,7.2,16.7,10.7
			c-2.7,4.3-39.1,0.7-37-3C232.4,80.4,241.5,77.2,250.2,77.1z"/>
	</g>
	<path id="Path_00000017508964136404463930000006970732302330431880_" class="st35" d="M305.1,74.3c8-10.6,37.6-9.9,45.2,4.8"/>
	<path id="Path_00000109724137698779919460000005396246999160073137_" class="st35" d="M236.6,81.7c11-17.2,37.3-18.8,49.8-8"/>
	<path id="Path_00000149357536394168527900000014917275601058252182_" class="st30" d="M244.4,117.4c6.4,4.8,14.7,6.6,22.9,3.9
		c2.4-0.8,4.2-2.2,6.4-3.4"/>
	<path id="Path_00000101081847457440698430000003575269041889351056_" class="st30" d="M313.1,115.7c10.1,10.1,24.9,9.7,32.7-0.1"/>
	<path id="Path_00000005946924001044461100000015495561476549246610_" class="st27" d="M341.9,216.3c-2.4,14.6-12.2,23.6-25.7,28
		c-12.7,4.2-34,2.5-44.2-0.6c-12.4-3.8-15.7-14.1-19.8-25.7"/>
	<path id="Path_00000033356744696982890550000000016782014707318427_" class="st30" d="M286.5,93.2c1.6,9.7,3.8,21.4,2.3,31.2
		c-0.6,3.9-7.9,6.6-6.2,10.8c0.9,2.3,4.5,2.7,6.7,3.8c2.1,1,5.1,4,7.5,4.1c3.6,0,8.4-5,11.2-7c0.7-0.5,2.5-1.4,2.8-2.2
		c1.3-3.8-6.4-5.9-7.4-9.1c-3-9.9-3.4-19.3-0.2-32.3"/>
	<path id="Path_00000103251581699851771140000005175351039736008610_" class="st36" d="M293,156.3c-21.1-1.5-26.1-6.7-30.7-2.5
		c-8.9,8,8.7,26.7,33.6,27.5c21.9,0.8,41.9-17.8,34.5-26.8C326.9,150.3,305,157.2,293,156.3z"/>
	<path id="Path_00000076570935708333084320000001367466175106360479_" class="st37" d="M274.2,127.9c-3.1,8.4-5.3,16.1-11.4,18.3
		c-6.7,2.4-15.7,2.2-26.1-4.3"/>
	<path id="Path_00000081633349232565568860000009446109603295922324_" class="st37" d="M319.3,130.7c5.2,12.3,12.6,23.7,38.9,10.9"
		/>
	<path id="Path_00000018203605963354457270000005448241321437813136_" class="st29" d="M198.9,22.1c20.4,17.7,18.7,52.2,18.7,52.2
		c0.3,9.4-14.8,7.5-15.9,26.9"/>
	<path id="Path_00000045584291909914472940000002833444524262723985_" class="st29" d="M395.5,22.1c-20.4,17.7-18.7,52.2-18.7,52.2
		c-0.3,9.4,14.8,7.5,15.9,26.9"/>
</g>
</svg>
